<svg width="427" height="41" viewBox="0 0 427 41" fill="none" xmlns="http://www.w3.org/2000/svg">
<path d="M4.41 16.256L6.594 9.214H8.078L10.262 16.256L12.726 9.214H14.504L11.088 19H9.45L7.392 12.294H7.28L5.222 19H3.584L0.168 9.214H1.946L4.41 16.256ZM17.3719 14.968V19H15.8039V8.626H17.3719V12.91C17.5959 12.4527 17.9319 12.0933 18.3799 11.832C18.8373 11.5707 19.3273 11.44 19.8499 11.44C20.6899 11.44 21.3666 11.6967 21.8799 12.21C22.4026 12.7233 22.6639 13.4653 22.6639 14.436V19H21.0959V14.912C21.0959 13.54 20.5266 12.854 19.3879 12.854C18.8466 12.854 18.3753 13.036 17.9739 13.4C17.5726 13.7547 17.3719 14.2773 17.3719 14.968ZM30.8887 19H29.4607V18.006C28.8447 18.7433 28.0187 19.112 26.9827 19.112C26.208 19.112 25.564 18.8927 25.0507 18.454C24.5467 18.0153 24.2947 17.432 24.2947 16.704C24.2947 15.9667 24.5654 15.416 25.1067 15.052C25.648 14.688 26.3807 14.506 27.3047 14.506H29.3347V14.226C29.3347 13.2367 28.784 12.742 27.6827 12.742C26.992 12.742 26.2734 12.994 25.5267 13.498L24.8267 12.518C25.732 11.7993 26.7587 11.44 27.9067 11.44C28.784 11.44 29.498 11.664 30.0487 12.112C30.6087 12.5507 30.8887 13.246 30.8887 14.198V19ZM29.3207 16.228V15.598H27.5567C26.4274 15.598 25.8627 15.9527 25.8627 16.662C25.8627 17.026 26.0027 17.306 26.2827 17.502C26.5627 17.6887 26.95 17.782 27.4447 17.782C27.9487 17.782 28.3874 17.642 28.7607 17.362C29.134 17.082 29.3207 16.704 29.3207 16.228ZM34.9215 12.812V16.592C34.9215 16.9467 35.0148 17.2313 35.2015 17.446C35.3881 17.6513 35.6495 17.754 35.9855 17.754C36.3215 17.754 36.6435 17.5907 36.9515 17.264L37.5955 18.37C37.0448 18.8647 36.4335 19.112 35.7615 19.112C35.0988 19.112 34.5295 18.8833 34.0535 18.426C33.5868 17.9593 33.3535 17.334 33.3535 16.55V12.812H32.4155V11.552H33.3535V9.214H34.9215V11.552H36.8815V12.812H34.9215ZM44.2508 14.968V19H42.6828V8.626H44.2508V12.91C44.4748 12.4527 44.8108 12.0933 45.2588 11.832C45.7162 11.5707 46.2062 11.44 46.7288 11.44C47.5688 11.44 48.2455 11.6967 48.7588 12.21C49.2815 12.7233 49.5428 13.4653 49.5428 14.436V19H47.9748V14.912C47.9748 13.54 47.4055 12.854 46.2668 12.854C45.7255 12.854 45.2542 13.036 44.8528 13.4C44.4515 13.7547 44.2508 14.2773 44.2508 14.968ZM57.7676 19H56.3396V18.006C55.7236 18.7433 54.8976 19.112 53.8616 19.112C53.0869 19.112 52.4429 18.8927 51.9296 18.454C51.4256 18.0153 51.1736 17.432 51.1736 16.704C51.1736 15.9667 51.4443 15.416 51.9856 15.052C52.5269 14.688 53.2596 14.506 54.1836 14.506H56.2136V14.226C56.2136 13.2367 55.6629 12.742 54.5616 12.742C53.8709 12.742 53.1523 12.994 52.4056 13.498L51.7056 12.518C52.6109 11.7993 53.6376 11.44 54.7856 11.44C55.6629 11.44 56.3769 11.664 56.9276 12.112C57.4876 12.5507 57.7676 13.246 57.7676 14.198V19ZM56.1996 16.228V15.598H54.4356C53.3063 15.598 52.7416 15.9527 52.7416 16.662C52.7416 17.026 52.8816 17.306 53.1616 17.502C53.4416 17.6887 53.8289 17.782 54.3236 17.782C54.8276 17.782 55.2663 17.642 55.6396 17.362C56.0129 17.082 56.1996 16.704 56.1996 16.228ZM63.9404 11.44C64.9391 11.44 65.7931 11.7853 66.5024 12.476C67.2117 13.1667 67.5664 14.086 67.5664 15.234C67.5664 16.382 67.2117 17.3153 66.5024 18.034C65.8024 18.7527 64.9811 19.112 64.0384 19.112C63.1051 19.112 62.2651 18.7013 61.5184 17.88V21.716H59.9504V11.552H61.5184V12.854C62.1344 11.9113 62.9417 11.44 63.9404 11.44ZM61.4904 15.29C61.4904 15.9993 61.7051 16.5827 62.1344 17.04C62.5637 17.488 63.0864 17.712 63.7024 17.712C64.3184 17.712 64.8551 17.488 65.3124 17.04C65.7697 16.592 65.9984 16.0133 65.9984 15.304C65.9984 14.5853 65.7744 13.9927 65.3264 13.526C64.8784 13.05 64.3417 12.812 63.7164 12.812C63.0911 12.812 62.5637 13.05 62.1344 13.526C61.7051 13.9927 61.4904 14.5807 61.4904 15.29ZM73.3467 11.44C74.3453 11.44 75.1993 11.7853 75.9087 12.476C76.618 13.1667 76.9727 14.086 76.9727 15.234C76.9727 16.382 76.618 17.3153 75.9087 18.034C75.2087 18.7527 74.3873 19.112 73.4447 19.112C72.5113 19.112 71.6713 18.7013 70.9247 17.88V21.716H69.3567V11.552H70.9247V12.854C71.5407 11.9113 72.348 11.44 73.3467 11.44ZM70.8967 15.29C70.8967 15.9993 71.1113 16.5827 71.5407 17.04C71.97 17.488 72.4927 17.712 73.1087 17.712C73.7247 17.712 74.2613 17.488 74.7187 17.04C75.176 16.592 75.4047 16.0133 75.4047 15.304C75.4047 14.5853 75.1807 13.9927 74.7327 13.526C74.2847 13.05 73.748 12.812 73.1227 12.812C72.4973 12.812 71.97 13.05 71.5407 13.526C71.1113 13.9927 70.8967 14.5807 70.8967 15.29ZM85.6929 15.962H79.8549C79.8922 16.5033 80.1396 16.942 80.5969 17.278C81.0542 17.6047 81.5769 17.768 82.1649 17.768C83.0982 17.768 83.8076 17.474 84.2929 16.886L85.1889 17.866C84.3862 18.6967 83.3409 19.112 82.0529 19.112C81.0076 19.112 80.1162 18.7667 79.3789 18.076C78.6509 17.376 78.2869 16.4427 78.2869 15.276C78.2869 14.1 78.6602 13.1667 79.4069 12.476C80.1536 11.7853 81.0309 11.44 82.0389 11.44C83.0562 11.44 83.9196 11.748 84.6289 12.364C85.3382 12.9707 85.6929 13.8107 85.6929 14.884V15.962ZM79.8549 14.73H84.1249C84.1249 14.1047 83.9289 13.624 83.5369 13.288C83.1449 12.952 82.6596 12.784 82.0809 12.784C81.5116 12.784 80.9982 12.9613 80.5409 13.316C80.0836 13.6613 79.8549 14.1327 79.8549 14.73ZM88.9852 14.968V19H87.4172V11.552H88.9852V12.91C89.2372 12.4527 89.5825 12.0933 90.0212 11.832C90.4692 11.5707 90.9499 11.44 91.4632 11.44C92.3032 11.44 92.9799 11.6967 93.4932 12.21C94.0159 12.7233 94.2772 13.4653 94.2772 14.436V19H92.7092V14.912C92.7092 13.54 92.1399 12.854 91.0012 12.854C90.4599 12.854 89.9885 13.036 89.5872 13.4C89.1859 13.7547 88.9852 14.2773 88.9852 14.968ZM101.774 16.774C101.774 17.4833 101.517 18.0527 101.004 18.482C100.491 18.902 99.8327 19.112 99.03 19.112C98.4887 19.112 97.924 19.014 97.336 18.818C96.7573 18.622 96.244 18.3467 95.796 17.992L96.552 16.774C97.42 17.4273 98.26 17.754 99.072 17.754C99.4267 17.754 99.7067 17.6747 99.912 17.516C100.117 17.348 100.22 17.138 100.22 16.886C100.22 16.5127 99.7253 16.1767 98.736 15.878C98.6613 15.85 98.6053 15.8313 98.568 15.822C97.0187 15.402 96.244 14.702 96.244 13.722C96.244 13.0313 96.51 12.4807 97.042 12.07C97.5833 11.65 98.2833 11.44 99.142 11.44C100.001 11.44 100.813 11.692 101.578 12.196L100.99 13.358C100.383 12.9567 99.7253 12.756 99.016 12.756C98.6427 12.756 98.3393 12.826 98.106 12.966C97.8727 13.0967 97.756 13.2973 97.756 13.568C97.756 13.8107 97.8773 13.988 98.12 14.1C98.288 14.184 98.5213 14.2633 98.82 14.338C99.128 14.4127 99.3987 14.4873 99.632 14.562C99.8653 14.6367 100.089 14.7207 100.304 14.814C100.528 14.9073 100.766 15.038 101.018 15.206C101.522 15.542 101.774 16.0647 101.774 16.774ZM108.96 19H107.392V11.552H108.96V19ZM107.49 10.068C107.294 9.872 107.196 9.63867 107.196 9.368C107.196 9.09733 107.294 8.864 107.49 8.668C107.686 8.472 107.919 8.374 108.19 8.374C108.46 8.374 108.694 8.472 108.89 8.668C109.086 8.864 109.184 9.09733 109.184 9.368C109.184 9.63867 109.086 9.872 108.89 10.068C108.694 10.264 108.46 10.362 108.19 10.362C107.919 10.362 107.686 10.264 107.49 10.068ZM113.166 10.936V11.552H115.126V12.812H113.166V19H111.598V12.812H110.66V11.552H111.598V10.978C111.598 10.194 111.831 9.57333 112.298 9.116C112.774 8.64933 113.343 8.416 114.006 8.416C114.678 8.416 115.289 8.66333 115.84 9.158L115.196 10.264C114.888 9.93733 114.566 9.774 114.23 9.774C113.894 9.774 113.632 9.88133 113.446 10.096C113.259 10.3013 113.166 10.5813 113.166 10.936ZM120.7 9.214H122.352V19H120.7V9.214ZM130.247 14.968V19H128.679V11.552H130.247V12.91C130.499 12.4527 130.844 12.0933 131.283 11.832C131.731 11.5707 132.212 11.44 132.725 11.44C133.565 11.44 134.242 11.6967 134.755 12.21C135.278 12.7233 135.539 13.4653 135.539 14.436V19H133.971V14.912C133.971 13.54 133.402 12.854 132.263 12.854C131.722 12.854 131.25 13.036 130.849 13.4C130.448 13.7547 130.247 14.2773 130.247 14.968ZM144.66 15.962H138.822C138.859 16.5033 139.106 16.942 139.564 17.278C140.021 17.6047 140.544 17.768 141.132 17.768C142.065 17.768 142.774 17.474 143.26 16.886L144.156 17.866C143.353 18.6967 142.308 19.112 141.02 19.112C139.974 19.112 139.083 18.7667 138.346 18.076C137.618 17.376 137.254 16.4427 137.254 15.276C137.254 14.1 137.627 13.1667 138.374 12.476C139.12 11.7853 139.998 11.44 141.006 11.44C142.023 11.44 142.886 11.748 143.596 12.364C144.305 12.9707 144.66 13.8107 144.66 14.884V15.962ZM138.822 14.73H143.092C143.092 14.1047 142.896 13.624 142.504 13.288C142.112 12.952 141.626 12.784 141.048 12.784C140.478 12.784 139.965 12.9613 139.508 13.316C139.05 13.6613 138.822 14.1327 138.822 14.73ZM153.314 15.962H147.476C147.513 16.5033 147.761 16.942 148.218 17.278C148.675 17.6047 149.198 17.768 149.786 17.768C150.719 17.768 151.429 17.474 151.914 16.886L152.81 17.866C152.007 18.6967 150.962 19.112 149.674 19.112C148.629 19.112 147.737 18.7667 147 18.076C146.272 17.376 145.908 16.4427 145.908 15.276C145.908 14.1 146.281 13.1667 147.028 12.476C147.775 11.7853 148.652 11.44 149.66 11.44C150.677 11.44 151.541 11.748 152.25 12.364C152.959 12.9707 153.314 13.8107 153.314 14.884V15.962ZM147.476 14.73H151.746C151.746 14.1047 151.55 13.624 151.158 13.288C150.766 12.952 150.281 12.784 149.702 12.784C149.133 12.784 148.619 12.9613 148.162 13.316C147.705 13.6613 147.476 14.1327 147.476 14.73ZM158.076 19.112C157.134 19.112 156.312 18.7573 155.612 18.048C154.912 17.3387 154.562 16.4053 154.562 15.248C154.562 14.0907 154.922 13.1667 155.64 12.476C156.359 11.7853 157.213 11.44 158.202 11.44C159.201 11.44 160.004 11.86 160.61 12.7V8.612H162.178V19H160.61V17.88C160.032 18.7013 159.187 19.112 158.076 19.112ZM156.13 15.318C156.13 16.0273 156.359 16.606 156.816 17.054C157.274 17.502 157.81 17.726 158.426 17.726C159.042 17.726 159.565 17.502 159.994 17.054C160.424 16.5967 160.638 16.0133 160.638 15.304C160.638 14.5947 160.424 14.002 159.994 13.526C159.565 13.05 159.038 12.812 158.412 12.812C157.787 12.812 157.25 13.05 156.802 13.526C156.354 14.002 156.13 14.5993 156.13 15.318ZM169.854 14.968V19H168.286V8.626H169.854V12.91C170.078 12.4527 170.414 12.0933 170.862 11.832C171.32 11.5707 171.81 11.44 172.332 11.44C173.172 11.44 173.849 11.6967 174.362 12.21C174.885 12.7233 175.146 13.4653 175.146 14.436V19H173.578V14.912C173.578 13.54 173.009 12.854 171.87 12.854C171.329 12.854 170.858 13.036 170.456 13.4C170.055 13.7547 169.854 14.2773 169.854 14.968ZM184.267 15.962H178.429C178.466 16.5033 178.714 16.942 179.171 17.278C179.628 17.6047 180.151 17.768 180.739 17.768C181.672 17.768 182.382 17.474 182.867 16.886L183.763 17.866C182.96 18.6967 181.915 19.112 180.627 19.112C179.582 19.112 178.69 18.7667 177.953 18.076C177.225 17.376 176.861 16.4427 176.861 15.276C176.861 14.1 177.234 13.1667 177.981 12.476C178.728 11.7853 179.605 11.44 180.613 11.44C181.63 11.44 182.494 11.748 183.203 12.364C183.912 12.9707 184.267 13.8107 184.267 14.884V15.962ZM178.429 14.73H182.699C182.699 14.1047 182.503 13.624 182.111 13.288C181.719 12.952 181.234 12.784 180.655 12.784C180.086 12.784 179.572 12.9613 179.115 13.316C178.658 13.6613 178.429 14.1327 178.429 14.73ZM187.559 19H185.991V8.612H187.559V19ZM193.823 11.44C194.822 11.44 195.676 11.7853 196.385 12.476C197.095 13.1667 197.449 14.086 197.449 15.234C197.449 16.382 197.095 17.3153 196.385 18.034C195.685 18.7527 194.864 19.112 193.921 19.112C192.988 19.112 192.148 18.7013 191.401 17.88V21.716H189.833V11.552H191.401V12.854C192.017 11.9113 192.825 11.44 193.823 11.44ZM191.373 15.29C191.373 15.9993 191.588 16.5827 192.017 17.04C192.447 17.488 192.969 17.712 193.585 17.712C194.201 17.712 194.738 17.488 195.195 17.04C195.653 16.592 195.881 16.0133 195.881 15.304C195.881 14.5853 195.657 13.9927 195.209 13.526C194.761 13.05 194.225 12.812 193.599 12.812C192.974 12.812 192.447 13.05 192.017 13.526C191.588 13.9927 191.373 14.5807 191.373 15.29ZM206.119 19.112C205.177 19.112 204.355 18.7573 203.655 18.048C202.955 17.3387 202.605 16.4053 202.605 15.248C202.605 14.0907 202.965 13.1667 203.683 12.476C204.402 11.7853 205.256 11.44 206.245 11.44C207.244 11.44 208.047 11.86 208.653 12.7V8.612H210.221V19H208.653V17.88C208.075 18.7013 207.23 19.112 206.119 19.112ZM204.173 15.318C204.173 16.0273 204.402 16.606 204.859 17.054C205.317 17.502 205.853 17.726 206.469 17.726C207.085 17.726 207.608 17.502 208.037 17.054C208.467 16.5967 208.681 16.0133 208.681 15.304C208.681 14.5947 208.467 14.002 208.037 13.526C207.608 13.05 207.081 12.812 206.455 12.812C205.83 12.812 205.293 13.05 204.845 13.526C204.397 14.002 204.173 14.5993 204.173 15.318ZM217.696 15.584V11.552H219.264V19H217.696V17.642C217.444 18.0993 217.094 18.4587 216.646 18.72C216.207 18.9813 215.731 19.112 215.218 19.112C214.378 19.112 213.696 18.8553 213.174 18.342C212.66 17.8287 212.404 17.0867 212.404 16.116V11.552H213.972V15.64C213.972 17.012 214.541 17.698 215.68 17.698C216.221 17.698 216.692 17.5207 217.094 17.166C217.495 16.802 217.696 16.2747 217.696 15.584ZM225.444 13.022C224.67 13.022 224.086 13.274 223.694 13.778C223.302 14.282 223.106 14.9587 223.106 15.808V19H221.538V11.552H223.106V13.05C223.358 12.5833 223.699 12.2007 224.128 11.902C224.567 11.6033 225.029 11.4493 225.514 11.44L225.528 13.022C225.5 13.022 225.472 13.022 225.444 13.022ZM228.671 19H227.103V11.552H228.671V19ZM227.201 10.068C227.005 9.872 226.907 9.63867 226.907 9.368C226.907 9.09733 227.005 8.864 227.201 8.668C227.397 8.472 227.63 8.374 227.901 8.374C228.171 8.374 228.405 8.472 228.601 8.668C228.797 8.864 228.895 9.09733 228.895 9.368C228.895 9.63867 228.797 9.872 228.601 10.068C228.405 10.264 228.171 10.362 227.901 10.362C227.63 10.362 227.397 10.264 227.201 10.068ZM232.513 14.968V19H230.945V11.552H232.513V12.91C232.765 12.4527 233.11 12.0933 233.549 11.832C233.997 11.5707 234.477 11.44 234.991 11.44C235.831 11.44 236.507 11.6967 237.021 12.21C237.543 12.7233 237.805 13.4653 237.805 14.436V19H236.237V14.912C236.237 13.54 235.667 12.854 234.529 12.854C233.987 12.854 233.516 13.036 233.115 13.4C232.713 13.7547 232.513 14.2773 232.513 14.968ZM246.883 11.552V18.048C246.883 19.364 246.524 20.3487 245.805 21.002C245.096 21.6647 244.181 21.996 243.061 21.996C241.941 21.996 240.929 21.646 240.023 20.946L240.765 19.756C241.493 20.3067 242.226 20.582 242.963 20.582C243.71 20.582 244.298 20.3907 244.727 20.008C245.166 19.6253 245.385 19.014 245.385 18.174V17.222C245.152 17.6607 244.816 18.0107 244.377 18.272C243.948 18.5333 243.463 18.664 242.921 18.664C241.932 18.664 241.12 18.3187 240.485 17.628C239.851 16.9373 239.533 16.0787 239.533 15.052C239.533 14.0253 239.851 13.1667 240.485 12.476C241.12 11.7853 241.927 11.44 242.907 11.44C243.897 11.44 244.699 11.846 245.315 12.658V11.552H246.883ZM241.073 14.996C241.073 15.6027 241.26 16.13 241.633 16.578C242.016 17.0167 242.525 17.236 243.159 17.236C243.803 17.236 244.321 17.0213 244.713 16.592C245.115 16.1627 245.315 15.6307 245.315 14.996C245.315 14.352 245.115 13.8107 244.713 13.372C244.312 12.924 243.794 12.7 243.159 12.7C242.525 12.7 242.016 12.9287 241.633 13.386C241.26 13.8433 241.073 14.38 241.073 14.996ZM254.929 12.812V16.592C254.929 16.9467 255.023 17.2313 255.209 17.446C255.396 17.6513 255.657 17.754 255.993 17.754C256.329 17.754 256.651 17.5907 256.959 17.264L257.603 18.37C257.053 18.8647 256.441 19.112 255.769 19.112C255.107 19.112 254.537 18.8833 254.061 18.426C253.595 17.9593 253.361 17.334 253.361 16.55V12.812H252.423V11.552H253.361V9.214H254.929V11.552H256.889V12.812H254.929ZM260.417 14.968V19H258.849V8.626H260.417V12.91C260.641 12.4527 260.977 12.0933 261.425 11.832C261.882 11.5707 262.372 11.44 262.895 11.44C263.735 11.44 264.412 11.6967 264.925 12.21C265.448 12.7233 265.709 13.4653 265.709 14.436V19H264.141V14.912C264.141 13.54 263.572 12.854 262.433 12.854C261.892 12.854 261.42 13.036 261.019 13.4C260.618 13.7547 260.417 14.2773 260.417 14.968ZM274.83 15.962H268.992C269.029 16.5033 269.276 16.942 269.734 17.278C270.191 17.6047 270.714 17.768 271.302 17.768C272.235 17.768 272.944 17.474 273.43 16.886L274.326 17.866C273.523 18.6967 272.478 19.112 271.19 19.112C270.144 19.112 269.253 18.7667 268.516 18.076C267.788 17.376 267.424 16.4427 267.424 15.276C267.424 14.1 267.797 13.1667 268.544 12.476C269.29 11.7853 270.168 11.44 271.176 11.44C272.193 11.44 273.056 11.748 273.766 12.364C274.475 12.9707 274.83 13.8107 274.83 14.884V15.962ZM268.992 14.73H273.262C273.262 14.1047 273.066 13.624 272.674 13.288C272.282 12.952 271.796 12.784 271.218 12.784C270.648 12.784 270.135 12.9613 269.678 13.316C269.22 13.6613 268.992 14.1327 268.992 14.73ZM281.964 14.968V19H280.396V8.626H281.964V12.91C282.188 12.4527 282.524 12.0933 282.972 11.832C283.429 11.5707 283.919 11.44 284.442 11.44C285.282 11.44 285.958 11.6967 286.472 12.21C286.994 12.7233 287.256 13.4653 287.256 14.436V19H285.688V14.912C285.688 13.54 285.118 12.854 283.98 12.854C283.438 12.854 282.967 13.036 282.566 13.4C282.164 13.7547 281.964 14.2773 281.964 14.968ZM295.481 19H294.053V18.006C293.437 18.7433 292.611 19.112 291.575 19.112C290.8 19.112 290.156 18.8927 289.643 18.454C289.139 18.0153 288.887 17.432 288.887 16.704C288.887 15.9667 289.157 15.416 289.699 15.052C290.24 14.688 290.973 14.506 291.897 14.506H293.927V14.226C293.927 13.2367 293.376 12.742 292.275 12.742C291.584 12.742 290.865 12.994 290.119 13.498L289.419 12.518C290.324 11.7993 291.351 11.44 292.499 11.44C293.376 11.44 294.09 11.664 294.641 12.112C295.201 12.5507 295.481 13.246 295.481 14.198V19ZM293.913 16.228V15.598H292.149C291.019 15.598 290.455 15.9527 290.455 16.662C290.455 17.026 290.595 17.306 290.875 17.502C291.155 17.6887 291.542 17.782 292.037 17.782C292.541 17.782 292.979 17.642 293.353 17.362C293.726 17.082 293.913 16.704 293.913 16.228ZM300.967 19.112C299.931 19.112 299.04 18.762 298.293 18.062C297.547 17.3527 297.173 16.4287 297.173 15.29C297.173 14.1513 297.561 13.2273 298.335 12.518C299.119 11.7993 300.071 11.44 301.191 11.44C302.311 11.44 303.259 11.8273 304.033 12.602L303.109 13.736C302.465 13.176 301.817 12.896 301.163 12.896C300.51 12.896 299.941 13.1153 299.455 13.554C298.979 13.9833 298.741 14.5433 298.741 15.234C298.741 15.9153 298.979 16.494 299.455 16.97C299.931 17.446 300.515 17.684 301.205 17.684C301.905 17.684 302.563 17.3667 303.179 16.732L304.103 17.74C303.198 18.6547 302.153 19.112 300.967 19.112ZM307.298 19H305.73V8.612H307.298V14.716L310.322 11.552H312.338L309.51 14.506L312.548 19H310.644L308.432 15.738L307.298 16.886V19ZM319.775 19H318.347V18.006C317.731 18.7433 316.905 19.112 315.869 19.112C315.095 19.112 314.451 18.8927 313.937 18.454C313.433 18.0153 313.181 17.432 313.181 16.704C313.181 15.9667 313.452 15.416 313.993 15.052C314.535 14.688 315.267 14.506 316.191 14.506H318.221V14.226C318.221 13.2367 317.671 12.742 316.569 12.742C315.879 12.742 315.16 12.994 314.413 13.498L313.713 12.518C314.619 11.7993 315.645 11.44 316.793 11.44C317.671 11.44 318.385 11.664 318.935 12.112C319.495 12.5507 319.775 13.246 319.775 14.198V19ZM318.207 16.228V15.598H316.443C315.314 15.598 314.749 15.9527 314.749 16.662C314.749 17.026 314.889 17.306 315.169 17.502C315.449 17.6887 315.837 17.782 316.331 17.782C316.835 17.782 317.274 17.642 317.647 17.362C318.021 17.082 318.207 16.704 318.207 16.228ZM323.808 12.812V16.592C323.808 16.9467 323.902 17.2313 324.088 17.446C324.275 17.6513 324.536 17.754 324.872 17.754C325.208 17.754 325.53 17.5907 325.838 17.264L326.482 18.37C325.932 18.8647 325.32 19.112 324.648 19.112C323.986 19.112 323.416 18.8833 322.94 18.426C322.474 17.9593 322.24 17.334 322.24 16.55V12.812H321.302V11.552H322.24V9.214H323.808V11.552H325.768V12.812H323.808ZM329.296 14.968V19H327.728V8.626H329.296V12.91C329.52 12.4527 329.856 12.0933 330.304 11.832C330.761 11.5707 331.251 11.44 331.774 11.44C332.614 11.44 333.29 11.6967 333.804 12.21C334.326 12.7233 334.588 13.4653 334.588 14.436V19H333.02V14.912C333.02 13.54 332.45 12.854 331.312 12.854C330.77 12.854 330.299 13.036 329.898 13.4C329.496 13.7547 329.296 14.2773 329.296 14.968ZM338.515 17.04C338.963 17.488 339.527 17.712 340.209 17.712C340.89 17.712 341.45 17.488 341.889 17.04C342.337 16.5827 342.561 15.9947 342.561 15.276C342.561 14.5573 342.337 13.974 341.889 13.526C341.45 13.0687 340.89 12.84 340.209 12.84C339.527 12.84 338.963 13.0687 338.515 13.526C338.076 13.974 337.857 14.5573 337.857 15.276C337.857 15.9947 338.076 16.5827 338.515 17.04ZM343.009 18.006C342.262 18.7433 341.329 19.112 340.209 19.112C339.089 19.112 338.155 18.7433 337.409 18.006C336.662 17.2593 336.289 16.3493 336.289 15.276C336.289 14.2027 336.662 13.2973 337.409 12.56C338.155 11.8133 339.089 11.44 340.209 11.44C341.329 11.44 342.262 11.8133 343.009 12.56C343.755 13.2973 344.129 14.2027 344.129 15.276C344.129 16.3493 343.755 17.2593 343.009 18.006ZM347.479 14.968V19H345.911V11.552H347.479V12.91C347.731 12.4527 348.077 12.0933 348.515 11.832C348.963 11.5707 349.444 11.44 349.957 11.44C350.797 11.44 351.474 11.6967 351.987 12.21C352.51 12.7233 352.771 13.4653 352.771 14.436V19H351.203V14.912C351.203 13.54 350.634 12.854 349.495 12.854C348.954 12.854 348.483 13.036 348.081 13.4C347.68 13.7547 347.479 14.2773 347.479 14.968ZM358.056 15.962H356.474V15.108C356.474 14.7347 356.516 14.4593 356.6 14.282C356.693 14.0953 356.889 13.8527 357.188 13.554L358.21 12.532C358.425 12.2987 358.532 12.0093 358.532 11.664C358.532 11.3187 358.42 11.034 358.196 10.81C357.972 10.5767 357.683 10.46 357.328 10.46C356.973 10.46 356.675 10.572 356.432 10.796C356.199 11.0107 356.063 11.3 356.026 11.664H354.332C354.425 10.8333 354.747 10.1847 355.298 9.718C355.858 9.242 356.553 9.004 357.384 9.004C358.215 9.004 358.891 9.23267 359.414 9.69C359.937 10.138 360.198 10.768 360.198 11.58C360.198 12.14 360.044 12.6067 359.736 12.98C359.559 13.204 359.423 13.3627 359.33 13.456C359.237 13.5493 359.111 13.6707 358.952 13.82C358.803 13.96 358.672 14.086 358.56 14.198C358.457 14.3007 358.373 14.3893 358.308 14.464C358.14 14.6693 358.056 14.9587 358.056 15.332V15.962ZM357.286 19.07C356.997 19.07 356.745 18.972 356.53 18.776C356.315 18.5707 356.208 18.328 356.208 18.048C356.208 17.7587 356.311 17.5113 356.516 17.306C356.731 17.1007 356.983 16.998 357.272 16.998C357.571 16.998 357.827 17.1007 358.042 17.306C358.257 17.502 358.364 17.7447 358.364 18.034C358.364 18.314 358.257 18.5567 358.042 18.762C357.837 18.9673 357.585 19.07 357.286 19.07Z" fill="white"/>
<line y1="40.5" x2="427" y2="40.5" stroke="#D434FE"/>
<path d="M418.78 18V14.2H414.96V12.32H418.78V8.56H420.58V12.32H424.4V14.2H420.58V18H418.78Z" fill="#D434FE"/>
</svg>
