<svg width="427" height="41" viewBox="0 0 427 41" fill="none" xmlns="http://www.w3.org/2000/svg">
<path d="M5.824 17.502C6.39333 17.502 6.88333 17.4087 7.294 17.222C7.70467 17.026 8.134 16.718 8.582 16.298L9.646 17.39C8.61 18.538 7.35 19.112 5.866 19.112C4.39133 19.112 3.164 18.636 2.184 17.684C1.21333 16.732 0.728 15.528 0.728 14.072C0.728 12.616 1.22267 11.4027 2.212 10.432C3.21067 9.46133 4.466 8.976 5.978 8.976C7.49933 8.976 8.76867 9.536 9.786 10.656L8.736 11.804C8.26933 11.356 7.826 11.0433 7.406 10.866C6.99533 10.6887 6.51 10.6 5.95 10.6C4.96067 10.6 4.13 10.922 3.458 11.566C2.786 12.2007 2.45 13.0173 2.45 14.016C2.45 15.0053 2.78133 15.836 3.444 16.508C4.116 17.1707 4.90933 17.502 5.824 17.502ZM17.4766 19H16.0486V18.006C15.4326 18.7433 14.6066 19.112 13.5706 19.112C12.7959 19.112 12.1519 18.8927 11.6386 18.454C11.1346 18.0153 10.8826 17.432 10.8826 16.704C10.8826 15.9667 11.1533 15.416 11.6946 15.052C12.2359 14.688 12.9686 14.506 13.8926 14.506H15.9226V14.226C15.9226 13.2367 15.3719 12.742 14.2706 12.742C13.5799 12.742 12.8613 12.994 12.1146 13.498L11.4146 12.518C12.3199 11.7993 13.3466 11.44 14.4946 11.44C15.3719 11.44 16.0859 11.664 16.6366 12.112C17.1966 12.5507 17.4766 13.246 17.4766 14.198V19ZM15.9086 16.228V15.598H14.1446C13.0153 15.598 12.4506 15.9527 12.4506 16.662C12.4506 17.026 12.5906 17.306 12.8706 17.502C13.1506 17.6887 13.5379 17.782 14.0326 17.782C14.5366 17.782 14.9753 17.642 15.3486 17.362C15.7219 17.082 15.9086 16.704 15.9086 16.228ZM21.2274 14.968V19H19.6594V11.552H21.2274V12.91C21.4794 12.4527 21.8247 12.0933 22.2634 11.832C22.7114 11.5707 23.1921 11.44 23.7054 11.44C24.5454 11.44 25.2221 11.6967 25.7354 12.21C26.2581 12.7233 26.5194 13.4653 26.5194 14.436V19H24.9514V14.912C24.9514 13.54 24.3821 12.854 23.2434 12.854C22.7021 12.854 22.2307 13.036 21.8294 13.4C21.4281 13.7547 21.2274 14.2773 21.2274 14.968ZM32.776 9.214H34.428V19H32.776V9.214ZM40.7551 19.35V11.552H42.3231V19.406C42.3231 20.19 42.0851 20.8107 41.6091 21.268C41.1424 21.7347 40.5731 21.968 39.9011 21.968C39.2384 21.968 38.6318 21.7207 38.0811 21.226L38.8091 20.05C39.1264 20.358 39.4438 20.512 39.7611 20.512C40.0878 20.512 40.3351 20.4093 40.5031 20.204C40.6711 19.9987 40.7551 19.714 40.7551 19.35ZM40.8251 10.068C40.6291 9.872 40.5311 9.63867 40.5311 9.368C40.5311 9.09733 40.6291 8.864 40.8251 8.668C41.0211 8.472 41.2544 8.374 41.5251 8.374C41.7958 8.374 42.0291 8.472 42.2251 8.668C42.4211 8.864 42.5191 9.09733 42.5191 9.368C42.5191 9.63867 42.4211 9.872 42.2251 10.068C42.0291 10.264 41.7958 10.362 41.5251 10.362C41.2544 10.362 41.0211 10.264 40.8251 10.068ZM46.3329 17.04C46.7809 17.488 47.3456 17.712 48.0269 17.712C48.7082 17.712 49.2682 17.488 49.7069 17.04C50.1549 16.5827 50.3789 15.9947 50.3789 15.276C50.3789 14.5573 50.1549 13.974 49.7069 13.526C49.2682 13.0687 48.7082 12.84 48.0269 12.84C47.3456 12.84 46.7809 13.0687 46.3329 13.526C45.8942 13.974 45.6749 14.5573 45.6749 15.276C45.6749 15.9947 45.8942 16.5827 46.3329 17.04ZM50.8269 18.006C50.0802 18.7433 49.1469 19.112 48.0269 19.112C46.9069 19.112 45.9736 18.7433 45.2269 18.006C44.4802 17.2593 44.1069 16.3493 44.1069 15.276C44.1069 14.2027 44.4802 13.2973 45.2269 12.56C45.9736 11.8133 46.9069 11.44 48.0269 11.44C49.1469 11.44 50.0802 11.8133 50.8269 12.56C51.5736 13.2973 51.9469 14.2027 51.9469 15.276C51.9469 16.3493 51.5736 17.2593 50.8269 18.006ZM55.2977 19H53.7297V11.552H55.2977V19ZM53.8277 10.068C53.6317 9.872 53.5337 9.63867 53.5337 9.368C53.5337 9.09733 53.6317 8.864 53.8277 8.668C54.0237 8.472 54.257 8.374 54.5277 8.374C54.7984 8.374 55.0317 8.472 55.2277 8.668C55.4237 8.864 55.5217 9.09733 55.5217 9.368C55.5217 9.63867 55.4237 9.872 55.2277 10.068C55.0317 10.264 54.7984 10.362 54.5277 10.362C54.257 10.362 54.0237 10.264 53.8277 10.068ZM59.1395 14.968V19H57.5715V11.552H59.1395V12.91C59.3915 12.4527 59.7368 12.0933 60.1755 11.832C60.6235 11.5707 61.1042 11.44 61.6175 11.44C62.4575 11.44 63.1342 11.6967 63.6475 12.21C64.1702 12.7233 64.4315 13.4653 64.4315 14.436V19H62.8635V14.912C62.8635 13.54 62.2942 12.854 61.1555 12.854C60.6142 12.854 60.1428 13.036 59.7415 13.4C59.3402 13.7547 59.1395 14.2773 59.1395 14.968ZM76.4981 19H75.0701V18.006C74.4541 18.7433 73.6281 19.112 72.5921 19.112C71.8174 19.112 71.1734 18.8927 70.6601 18.454C70.1561 18.0153 69.9041 17.432 69.9041 16.704C69.9041 15.9667 70.1747 15.416 70.7161 15.052C71.2574 14.688 71.9901 14.506 72.9141 14.506H74.9441V14.226C74.9441 13.2367 74.3934 12.742 73.2921 12.742C72.6014 12.742 71.8827 12.994 71.1361 13.498L70.4361 12.518C71.3414 11.7993 72.3681 11.44 73.5161 11.44C74.3934 11.44 75.1074 11.664 75.6581 12.112C76.2181 12.5507 76.4981 13.246 76.4981 14.198V19ZM74.9301 16.228V15.598H73.1661C72.0367 15.598 71.4721 15.9527 71.4721 16.662C71.4721 17.026 71.6121 17.306 71.8921 17.502C72.1721 17.6887 72.5594 17.782 73.0541 17.782C73.5581 17.782 73.9967 17.642 74.3701 17.362C74.7434 17.082 74.9301 16.704 74.9301 16.228ZM84.4547 12.812V16.592C84.4547 16.9467 84.548 17.2313 84.7347 17.446C84.9213 17.6513 85.1827 17.754 85.5187 17.754C85.8547 17.754 86.1767 17.5907 86.4847 17.264L87.1287 18.37C86.578 18.8647 85.9667 19.112 85.2947 19.112C84.632 19.112 84.0627 18.8833 83.5867 18.426C83.12 17.9593 82.8867 17.334 82.8867 16.55V12.812H81.9487V11.552H82.8867V9.214H84.4547V11.552H86.4147V12.812H84.4547ZM95.3042 15.962H89.4662C89.5036 16.5033 89.7509 16.942 90.2082 17.278C90.6656 17.6047 91.1882 17.768 91.7762 17.768C92.7096 17.768 93.4189 17.474 93.9042 16.886L94.8002 17.866C93.9976 18.6967 92.9522 19.112 91.6642 19.112C90.6189 19.112 89.7276 18.7667 88.9902 18.076C88.2622 17.376 87.8982 16.4427 87.8982 15.276C87.8982 14.1 88.2716 13.1667 89.0182 12.476C89.7649 11.7853 90.6422 11.44 91.6502 11.44C92.6676 11.44 93.5309 11.748 94.2402 12.364C94.9496 12.9707 95.3042 13.8107 95.3042 14.884V15.962ZM89.4662 14.73H93.7362C93.7362 14.1047 93.5402 13.624 93.1482 13.288C92.7562 12.952 92.2709 12.784 91.6922 12.784C91.1229 12.784 90.6096 12.9613 90.1522 13.316C89.6949 13.6613 89.4662 14.1327 89.4662 14.73ZM103.063 19H101.635V18.006C101.019 18.7433 100.193 19.112 99.1565 19.112C98.3819 19.112 97.7379 18.8927 97.2245 18.454C96.7205 18.0153 96.4685 17.432 96.4685 16.704C96.4685 15.9667 96.7392 15.416 97.2805 15.052C97.8219 14.688 98.5545 14.506 99.4785 14.506H101.509V14.226C101.509 13.2367 100.958 12.742 99.8565 12.742C99.1659 12.742 98.4472 12.994 97.7005 13.498L97.0005 12.518C97.9059 11.7993 98.9325 11.44 100.081 11.44C100.958 11.44 101.672 11.664 102.223 12.112C102.783 12.5507 103.063 13.246 103.063 14.198V19ZM101.495 16.228V15.598H99.7305C98.6012 15.598 98.0365 15.9527 98.0365 16.662C98.0365 17.026 98.1765 17.306 98.4565 17.502C98.7365 17.6887 99.1239 17.782 99.6185 17.782C100.123 17.782 100.561 17.642 100.935 17.362C101.308 17.082 101.495 16.704 101.495 16.228ZM106.813 14.968V19H105.245V11.552H106.813V12.91C107.037 12.4527 107.373 12.0933 107.821 11.832C108.279 11.5707 108.769 11.44 109.291 11.44C110.467 11.44 111.265 11.9253 111.685 12.896C112.423 11.9253 113.342 11.44 114.443 11.44C115.283 11.44 115.96 11.6967 116.473 12.21C116.996 12.7233 117.257 13.4653 117.257 14.436V19H115.689V14.912C115.689 13.54 115.12 12.854 113.981 12.854C113.449 12.854 112.983 13.0267 112.581 13.372C112.189 13.708 111.984 14.2027 111.965 14.856V19H110.397V14.912C110.397 14.2027 110.271 13.6847 110.019 13.358C109.767 13.022 109.371 12.854 108.829 12.854C108.288 12.854 107.817 13.036 107.415 13.4C107.014 13.7547 106.813 14.2773 106.813 14.968ZM125.015 17.04C125.463 17.488 126.027 17.712 126.709 17.712C127.39 17.712 127.95 17.488 128.389 17.04C128.837 16.5827 129.061 15.9947 129.061 15.276C129.061 14.5573 128.837 13.974 128.389 13.526C127.95 13.0687 127.39 12.84 126.709 12.84C126.027 12.84 125.463 13.0687 125.015 13.526C124.576 13.974 124.357 14.5573 124.357 15.276C124.357 15.9947 124.576 16.5827 125.015 17.04ZM129.509 18.006C128.762 18.7433 127.829 19.112 126.709 19.112C125.589 19.112 124.655 18.7433 123.909 18.006C123.162 17.2593 122.789 16.3493 122.789 15.276C122.789 14.2027 123.162 13.2973 123.909 12.56C124.655 11.8133 125.589 11.44 126.709 11.44C127.829 11.44 128.762 11.8133 129.509 12.56C130.255 13.2973 130.629 14.2027 130.629 15.276C130.629 16.3493 130.255 17.2593 129.509 18.006ZM136.317 13.022C135.543 13.022 134.959 13.274 134.567 13.778C134.175 14.282 133.979 14.9587 133.979 15.808V19H132.411V11.552H133.979V13.05C134.231 12.5833 134.572 12.2007 135.001 11.902C135.44 11.6033 135.902 11.4493 136.387 11.44L136.401 13.022C136.373 13.022 136.345 13.022 136.317 13.022ZM144.856 19.112C143.913 19.112 143.092 18.7573 142.392 18.048C141.692 17.3387 141.342 16.4053 141.342 15.248C141.342 14.0907 141.701 13.1667 142.42 12.476C143.138 11.7853 143.992 11.44 144.982 11.44C145.98 11.44 146.783 11.86 147.39 12.7V8.612H148.958V19H147.39V17.88C146.811 18.7013 145.966 19.112 144.856 19.112ZM142.91 15.318C142.91 16.0273 143.138 16.606 143.596 17.054C144.053 17.502 144.59 17.726 145.206 17.726C145.822 17.726 146.344 17.502 146.774 17.054C147.203 16.5967 147.418 16.0133 147.418 15.304C147.418 14.5947 147.203 14.002 146.774 13.526C146.344 13.05 145.817 12.812 145.192 12.812C144.566 12.812 144.03 13.05 143.582 13.526C143.134 14.002 142.91 14.5993 142.91 15.318ZM152.96 17.04C153.408 17.488 153.973 17.712 154.654 17.712C155.335 17.712 155.895 17.488 156.334 17.04C156.782 16.5827 157.006 15.9947 157.006 15.276C157.006 14.5573 156.782 13.974 156.334 13.526C155.895 13.0687 155.335 12.84 154.654 12.84C153.973 12.84 153.408 13.0687 152.96 13.526C152.521 13.974 152.302 14.5573 152.302 15.276C152.302 15.9947 152.521 16.5827 152.96 17.04ZM157.454 18.006C156.707 18.7433 155.774 19.112 154.654 19.112C153.534 19.112 152.601 18.7433 151.854 18.006C151.107 17.2593 150.734 16.3493 150.734 15.276C150.734 14.2027 151.107 13.2973 151.854 12.56C152.601 11.8133 153.534 11.44 154.654 11.44C155.774 11.44 156.707 11.8133 157.454 12.56C158.201 13.2973 158.574 14.2027 158.574 15.276C158.574 16.3493 158.201 17.2593 157.454 18.006ZM164.422 9.214H166.074V19H164.422V9.214ZM173.97 14.968V19H172.402V8.626H173.97V12.91C174.194 12.4527 174.53 12.0933 174.978 11.832C175.435 11.5707 175.925 11.44 176.448 11.44C177.288 11.44 177.964 11.6967 178.478 12.21C179 12.7233 179.262 13.4653 179.262 14.436V19H177.694V14.912C177.694 13.54 177.124 12.854 175.986 12.854C175.444 12.854 174.973 13.036 174.572 13.4C174.17 13.7547 173.97 14.2773 173.97 14.968ZM187.486 19H186.058V18.006C185.442 18.7433 184.616 19.112 183.58 19.112C182.806 19.112 182.162 18.8927 181.648 18.454C181.144 18.0153 180.892 17.432 180.892 16.704C180.892 15.9667 181.163 15.416 181.704 15.052C182.246 14.688 182.978 14.506 183.902 14.506H185.932V14.226C185.932 13.2367 185.382 12.742 184.28 12.742C183.59 12.742 182.871 12.994 182.124 13.498L181.424 12.518C182.33 11.7993 183.356 11.44 184.504 11.44C185.382 11.44 186.096 11.664 186.646 12.112C187.206 12.5507 187.486 13.246 187.486 14.198V19ZM185.918 16.228V15.598H184.154C183.025 15.598 182.46 15.9527 182.46 16.662C182.46 17.026 182.6 17.306 182.88 17.502C183.16 17.6887 183.548 17.782 184.042 17.782C184.546 17.782 184.985 17.642 185.358 17.362C185.732 17.082 185.918 16.704 185.918 16.228ZM191.561 19L188.565 11.552H190.189L192.457 17.18L194.725 11.552H196.349L193.353 19H191.561ZM204.529 15.962H198.691C198.728 16.5033 198.976 16.942 199.433 17.278C199.89 17.6047 200.413 17.768 201.001 17.768C201.934 17.768 202.644 17.474 203.129 16.886L204.025 17.866C203.222 18.6967 202.177 19.112 200.889 19.112C199.844 19.112 198.952 18.7667 198.215 18.076C197.487 17.376 197.123 16.4427 197.123 15.276C197.123 14.1 197.496 13.1667 198.243 12.476C198.99 11.7853 199.867 11.44 200.875 11.44C201.892 11.44 202.756 11.748 203.465 12.364C204.174 12.9707 204.529 13.8107 204.529 14.884V15.962ZM198.691 14.73H202.961C202.961 14.1047 202.765 13.624 202.373 13.288C201.981 12.952 201.496 12.784 200.917 12.784C200.348 12.784 199.834 12.9613 199.377 13.316C198.92 13.6613 198.691 14.1327 198.691 14.73ZM212.027 12.812V16.592C212.027 16.9467 212.12 17.2313 212.307 17.446C212.494 17.6513 212.755 17.754 213.091 17.754C213.427 17.754 213.749 17.5907 214.057 17.264L214.701 18.37C214.15 18.8647 213.539 19.112 212.867 19.112C212.204 19.112 211.635 18.8833 211.159 18.426C210.692 17.9593 210.459 17.334 210.459 16.55V12.812H209.521V11.552H210.459V9.214H212.027V11.552H213.987V12.812H212.027ZM217.628 17.04C218.076 17.488 218.64 17.712 219.322 17.712C220.003 17.712 220.563 17.488 221.002 17.04C221.45 16.5827 221.674 15.9947 221.674 15.276C221.674 14.5573 221.45 13.974 221.002 13.526C220.563 13.0687 220.003 12.84 219.322 12.84C218.64 12.84 218.076 13.0687 217.628 13.526C217.189 13.974 216.97 14.5573 216.97 15.276C216.97 15.9947 217.189 16.5827 217.628 17.04ZM222.122 18.006C221.375 18.7433 220.442 19.112 219.322 19.112C218.202 19.112 217.268 18.7433 216.522 18.006C215.775 17.2593 215.402 16.3493 215.402 15.276C215.402 14.2027 215.775 13.2973 216.522 12.56C217.268 11.8133 218.202 11.44 219.322 11.44C220.442 11.44 221.375 11.8133 222.122 12.56C222.868 13.2973 223.242 14.2027 223.242 15.276C223.242 16.3493 222.868 17.2593 222.122 18.006ZM232.17 19.112C231.134 19.112 230.243 18.762 229.496 18.062C228.75 17.3527 228.376 16.4287 228.376 15.29C228.376 14.1513 228.764 13.2273 229.538 12.518C230.322 11.7993 231.274 11.44 232.394 11.44C233.514 11.44 234.462 11.8273 235.236 12.602L234.312 13.736C233.668 13.176 233.02 12.896 232.366 12.896C231.713 12.896 231.144 13.1153 230.658 13.554C230.182 13.9833 229.944 14.5433 229.944 15.234C229.944 15.9153 230.182 16.494 230.658 16.97C231.134 17.446 231.718 17.684 232.408 17.684C233.108 17.684 233.766 17.3667 234.382 16.732L235.306 17.74C234.401 18.6547 233.356 19.112 232.17 19.112ZM238.518 17.04C238.966 17.488 239.531 17.712 240.212 17.712C240.894 17.712 241.454 17.488 241.892 17.04C242.34 16.5827 242.564 15.9947 242.564 15.276C242.564 14.5573 242.34 13.974 241.892 13.526C241.454 13.0687 240.894 12.84 240.212 12.84C239.531 12.84 238.966 13.0687 238.518 13.526C238.08 13.974 237.86 14.5573 237.86 15.276C237.86 15.9947 238.08 16.5827 238.518 17.04ZM243.012 18.006C242.266 18.7433 241.332 19.112 240.212 19.112C239.092 19.112 238.159 18.7433 237.412 18.006C236.666 17.2593 236.292 16.3493 236.292 15.276C236.292 14.2027 236.666 13.2973 237.412 12.56C238.159 11.8133 239.092 11.44 240.212 11.44C241.332 11.44 242.266 11.8133 243.012 12.56C243.759 13.2973 244.132 14.2027 244.132 15.276C244.132 16.3493 243.759 17.2593 243.012 18.006ZM247.483 14.968V19H245.915V11.552H247.483V12.91C247.707 12.4527 248.043 12.0933 248.491 11.832C248.949 11.5707 249.439 11.44 249.961 11.44C251.137 11.44 251.935 11.9253 252.355 12.896C253.093 11.9253 254.012 11.44 255.113 11.44C255.953 11.44 256.63 11.6967 257.143 12.21C257.666 12.7233 257.927 13.4653 257.927 14.436V19H256.359V14.912C256.359 13.54 255.79 12.854 254.651 12.854C254.119 12.854 253.653 13.0267 253.251 13.372C252.859 13.708 252.654 14.2027 252.635 14.856V19H251.067V14.912C251.067 14.2027 250.941 13.6847 250.689 13.358C250.437 13.022 250.041 12.854 249.499 12.854C248.958 12.854 248.487 13.036 248.085 13.4C247.684 13.7547 247.483 14.2773 247.483 14.968ZM267.037 15.962H261.199C261.236 16.5033 261.483 16.942 261.941 17.278C262.398 17.6047 262.921 17.768 263.509 17.768C264.442 17.768 265.151 17.474 265.637 16.886L266.533 17.866C265.73 18.6967 264.685 19.112 263.397 19.112C262.351 19.112 261.46 18.7667 260.723 18.076C259.995 17.376 259.631 16.4427 259.631 15.276C259.631 14.1 260.004 13.1667 260.751 12.476C261.497 11.7853 262.375 11.44 263.383 11.44C264.4 11.44 265.263 11.748 265.973 12.364C266.682 12.9707 267.037 13.8107 267.037 14.884V15.962ZM261.199 14.73H265.469C265.469 14.1047 265.273 13.624 264.881 13.288C264.489 12.952 264.003 12.784 263.425 12.784C262.855 12.784 262.342 12.9613 261.885 13.316C261.427 13.6613 261.199 14.1327 261.199 14.73ZM276.089 19H274.297L271.721 11.552H273.345L275.193 17.18L277.041 11.552H278.665L280.513 17.18L282.361 11.552H283.985L281.409 19H279.617L277.853 13.904L276.089 19ZM286.94 19H285.372V11.552H286.94V19ZM285.47 10.068C285.274 9.872 285.176 9.63867 285.176 9.368C285.176 9.09733 285.274 8.864 285.47 8.668C285.666 8.472 285.9 8.374 286.17 8.374C286.441 8.374 286.674 8.472 286.87 8.668C287.066 8.864 287.164 9.09733 287.164 9.368C287.164 9.63867 287.066 9.872 286.87 10.068C286.674 10.264 286.441 10.362 286.17 10.362C285.9 10.362 285.666 10.264 285.47 10.068ZM291.146 12.812V16.592C291.146 16.9467 291.239 17.2313 291.426 17.446C291.613 17.6513 291.874 17.754 292.21 17.754C292.546 17.754 292.868 17.5907 293.176 17.264L293.82 18.37C293.269 18.8647 292.658 19.112 291.986 19.112C291.323 19.112 290.754 18.8833 290.278 18.426C289.811 17.9593 289.578 17.334 289.578 16.55V12.812H288.64V11.552H289.578V9.214H291.146V11.552H293.106V12.812H291.146ZM296.634 14.968V19H295.066V8.626H296.634V12.91C296.858 12.4527 297.194 12.0933 297.642 11.832C298.099 11.5707 298.589 11.44 299.112 11.44C299.952 11.44 300.628 11.6967 301.142 12.21C301.664 12.7233 301.926 13.4653 301.926 14.436V19H300.358V14.912C300.358 13.54 299.788 12.854 298.65 12.854C298.108 12.854 297.637 13.036 297.236 13.4C296.834 13.7547 296.634 14.2773 296.634 14.968ZM309.694 17.04C310.142 17.488 310.707 17.712 311.388 17.712C312.07 17.712 312.63 17.488 313.068 17.04C313.516 16.5827 313.74 15.9947 313.74 15.276C313.74 14.5573 313.516 13.974 313.068 13.526C312.63 13.0687 312.07 12.84 311.388 12.84C310.707 12.84 310.142 13.0687 309.694 13.526C309.256 13.974 309.036 14.5573 309.036 15.276C309.036 15.9947 309.256 16.5827 309.694 17.04ZM314.188 18.006C313.442 18.7433 312.508 19.112 311.388 19.112C310.268 19.112 309.335 18.7433 308.588 18.006C307.842 17.2593 307.468 16.3493 307.468 15.276C307.468 14.2027 307.842 13.2973 308.588 12.56C309.335 11.8133 310.268 11.44 311.388 11.44C312.508 11.44 313.442 11.8133 314.188 12.56C314.935 13.2973 315.308 14.2027 315.308 15.276C315.308 16.3493 314.935 17.2593 314.188 18.006ZM318.659 14.968V19H317.091V11.552H318.659V12.91C318.911 12.4527 319.256 12.0933 319.695 11.832C320.143 11.5707 320.624 11.44 321.137 11.44C321.977 11.44 322.654 11.6967 323.167 12.21C323.69 12.7233 323.951 13.4653 323.951 14.436V19H322.383V14.912C322.383 13.54 321.814 12.854 320.675 12.854C320.134 12.854 319.662 13.036 319.261 13.4C318.86 13.7547 318.659 14.2773 318.659 14.968ZM333.072 15.962H327.234C327.271 16.5033 327.518 16.942 327.976 17.278C328.433 17.6047 328.956 17.768 329.544 17.768C330.477 17.768 331.186 17.474 331.672 16.886L332.568 17.866C331.765 18.6967 330.72 19.112 329.432 19.112C328.386 19.112 327.495 18.7667 326.758 18.076C326.03 17.376 325.666 16.4427 325.666 15.276C325.666 14.1 326.039 13.1667 326.786 12.476C327.532 11.7853 328.41 11.44 329.418 11.44C330.435 11.44 331.298 11.748 332.008 12.364C332.717 12.9707 333.072 13.8107 333.072 14.884V15.962ZM327.234 14.73H331.504C331.504 14.1047 331.308 13.624 330.916 13.288C330.524 12.952 330.038 12.784 329.46 12.784C328.89 12.784 328.377 12.9613 327.92 13.316C327.462 13.6613 327.234 14.1327 327.234 14.73ZM337.89 15.962H336.308V15.108C336.308 14.7347 336.35 14.4593 336.434 14.282C336.527 14.0953 336.723 13.8527 337.022 13.554L338.044 12.532C338.259 12.2987 338.366 12.0093 338.366 11.664C338.366 11.3187 338.254 11.034 338.03 10.81C337.806 10.5767 337.517 10.46 337.162 10.46C336.807 10.46 336.509 10.572 336.266 10.796C336.033 11.0107 335.897 11.3 335.86 11.664H334.166C334.259 10.8333 334.581 10.1847 335.132 9.718C335.692 9.242 336.387 9.004 337.218 9.004C338.049 9.004 338.725 9.23267 339.248 9.69C339.771 10.138 340.032 10.768 340.032 11.58C340.032 12.14 339.878 12.6067 339.57 12.98C339.393 13.204 339.257 13.3627 339.164 13.456C339.071 13.5493 338.945 13.6707 338.786 13.82C338.637 13.96 338.506 14.086 338.394 14.198C338.291 14.3007 338.207 14.3893 338.142 14.464C337.974 14.6693 337.89 14.9587 337.89 15.332V15.962ZM337.12 19.07C336.831 19.07 336.579 18.972 336.364 18.776C336.149 18.5707 336.042 18.328 336.042 18.048C336.042 17.7587 336.145 17.5113 336.35 17.306C336.565 17.1007 336.817 16.998 337.106 16.998C337.405 16.998 337.661 17.1007 337.876 17.306C338.091 17.502 338.198 17.7447 338.198 18.034C338.198 18.314 338.091 18.5567 337.876 18.762C337.671 18.9673 337.419 19.07 337.12 19.07Z" fill="white"/>
<line y1="40.5" x2="427" y2="40.5" stroke="#D434FE"/>
<path d="M418.78 18V14.2H414.96V12.32H418.78V8.56H420.58V12.32H424.4V14.2H420.58V18H418.78Z" fill="#D434FE"/>
</svg>
