<svg width="427" height="41" viewBox="0 0 427 41" fill="none" xmlns="http://www.w3.org/2000/svg">
<path d="M4.41 16.256L6.594 9.214H8.078L10.262 16.256L12.726 9.214H14.504L11.088 19H9.45L7.392 12.294H7.28L5.222 19H3.584L0.168 9.214H1.946L4.41 16.256ZM17.3719 14.968V19H15.8039V8.626H17.3719V12.91C17.5959 12.4527 17.9319 12.0933 18.3799 11.832C18.8373 11.5707 19.3273 11.44 19.8499 11.44C20.6899 11.44 21.3666 11.6967 21.8799 12.21C22.4026 12.7233 22.6639 13.4653 22.6639 14.436V19H21.0959V14.912C21.0959 13.54 20.5266 12.854 19.3879 12.854C18.8466 12.854 18.3753 13.036 17.9739 13.4C17.5726 13.7547 17.3719 14.2773 17.3719 14.968ZM30.8887 19H29.4607V18.006C28.8447 18.7433 28.0187 19.112 26.9827 19.112C26.208 19.112 25.564 18.8927 25.0507 18.454C24.5467 18.0153 24.2947 17.432 24.2947 16.704C24.2947 15.9667 24.5654 15.416 25.1067 15.052C25.648 14.688 26.3807 14.506 27.3047 14.506H29.3347V14.226C29.3347 13.2367 28.784 12.742 27.6827 12.742C26.992 12.742 26.2734 12.994 25.5267 13.498L24.8267 12.518C25.732 11.7993 26.7587 11.44 27.9067 11.44C28.784 11.44 29.498 11.664 30.0487 12.112C30.6087 12.5507 30.8887 13.246 30.8887 14.198V19ZM29.3207 16.228V15.598H27.5567C26.4274 15.598 25.8627 15.9527 25.8627 16.662C25.8627 17.026 26.0027 17.306 26.2827 17.502C26.5627 17.6887 26.95 17.782 27.4447 17.782C27.9487 17.782 28.3874 17.642 28.7607 17.362C29.134 17.082 29.3207 16.704 29.3207 16.228ZM34.9215 12.812V16.592C34.9215 16.9467 35.0148 17.2313 35.2015 17.446C35.3881 17.6513 35.6495 17.754 35.9855 17.754C36.3215 17.754 36.6435 17.5907 36.9515 17.264L37.5955 18.37C37.0448 18.8647 36.4335 19.112 35.7615 19.112C35.0988 19.112 34.5295 18.8833 34.0535 18.426C33.5868 17.9593 33.3535 17.334 33.3535 16.55V12.812H32.4155V11.552H33.3535V9.214H34.9215V11.552H36.8815V12.812H34.9215ZM44.2508 14.968V19H42.6828V8.626H44.2508V12.91C44.4748 12.4527 44.8108 12.0933 45.2588 11.832C45.7162 11.5707 46.2062 11.44 46.7288 11.44C47.5688 11.44 48.2455 11.6967 48.7588 12.21C49.2815 12.7233 49.5428 13.4653 49.5428 14.436V19H47.9748V14.912C47.9748 13.54 47.4055 12.854 46.2668 12.854C45.7255 12.854 45.2542 13.036 44.8528 13.4C44.4515 13.7547 44.2508 14.2773 44.2508 14.968ZM57.7676 19H56.3396V18.006C55.7236 18.7433 54.8976 19.112 53.8616 19.112C53.0869 19.112 52.4429 18.8927 51.9296 18.454C51.4256 18.0153 51.1736 17.432 51.1736 16.704C51.1736 15.9667 51.4443 15.416 51.9856 15.052C52.5269 14.688 53.2596 14.506 54.1836 14.506H56.2136V14.226C56.2136 13.2367 55.6629 12.742 54.5616 12.742C53.8709 12.742 53.1523 12.994 52.4056 13.498L51.7056 12.518C52.6109 11.7993 53.6376 11.44 54.7856 11.44C55.6629 11.44 56.3769 11.664 56.9276 12.112C57.4876 12.5507 57.7676 13.246 57.7676 14.198V19ZM56.1996 16.228V15.598H54.4356C53.3063 15.598 52.7416 15.9527 52.7416 16.662C52.7416 17.026 52.8816 17.306 53.1616 17.502C53.4416 17.6887 53.8289 17.782 54.3236 17.782C54.8276 17.782 55.2663 17.642 55.6396 17.362C56.0129 17.082 56.1996 16.704 56.1996 16.228ZM63.9404 11.44C64.9391 11.44 65.7931 11.7853 66.5024 12.476C67.2117 13.1667 67.5664 14.086 67.5664 15.234C67.5664 16.382 67.2117 17.3153 66.5024 18.034C65.8024 18.7527 64.9811 19.112 64.0384 19.112C63.1051 19.112 62.2651 18.7013 61.5184 17.88V21.716H59.9504V11.552H61.5184V12.854C62.1344 11.9113 62.9417 11.44 63.9404 11.44ZM61.4904 15.29C61.4904 15.9993 61.7051 16.5827 62.1344 17.04C62.5637 17.488 63.0864 17.712 63.7024 17.712C64.3184 17.712 64.8551 17.488 65.3124 17.04C65.7697 16.592 65.9984 16.0133 65.9984 15.304C65.9984 14.5853 65.7744 13.9927 65.3264 13.526C64.8784 13.05 64.3417 12.812 63.7164 12.812C63.0911 12.812 62.5637 13.05 62.1344 13.526C61.7051 13.9927 61.4904 14.5807 61.4904 15.29ZM73.3467 11.44C74.3453 11.44 75.1993 11.7853 75.9087 12.476C76.618 13.1667 76.9727 14.086 76.9727 15.234C76.9727 16.382 76.618 17.3153 75.9087 18.034C75.2087 18.7527 74.3873 19.112 73.4447 19.112C72.5113 19.112 71.6713 18.7013 70.9247 17.88V21.716H69.3567V11.552H70.9247V12.854C71.5407 11.9113 72.348 11.44 73.3467 11.44ZM70.8967 15.29C70.8967 15.9993 71.1113 16.5827 71.5407 17.04C71.97 17.488 72.4927 17.712 73.1087 17.712C73.7247 17.712 74.2613 17.488 74.7187 17.04C75.176 16.592 75.4047 16.0133 75.4047 15.304C75.4047 14.5853 75.1807 13.9927 74.7327 13.526C74.2847 13.05 73.748 12.812 73.1227 12.812C72.4973 12.812 71.97 13.05 71.5407 13.526C71.1113 13.9927 70.8967 14.5807 70.8967 15.29ZM85.6929 15.962H79.8549C79.8922 16.5033 80.1396 16.942 80.5969 17.278C81.0542 17.6047 81.5769 17.768 82.1649 17.768C83.0982 17.768 83.8076 17.474 84.2929 16.886L85.1889 17.866C84.3862 18.6967 83.3409 19.112 82.0529 19.112C81.0076 19.112 80.1162 18.7667 79.3789 18.076C78.6509 17.376 78.2869 16.4427 78.2869 15.276C78.2869 14.1 78.6602 13.1667 79.4069 12.476C80.1536 11.7853 81.0309 11.44 82.0389 11.44C83.0562 11.44 83.9196 11.748 84.6289 12.364C85.3382 12.9707 85.6929 13.8107 85.6929 14.884V15.962ZM79.8549 14.73H84.1249C84.1249 14.1047 83.9289 13.624 83.5369 13.288C83.1449 12.952 82.6596 12.784 82.0809 12.784C81.5116 12.784 80.9982 12.9613 80.5409 13.316C80.0836 13.6613 79.8549 14.1327 79.8549 14.73ZM88.9852 14.968V19H87.4172V11.552H88.9852V12.91C89.2372 12.4527 89.5825 12.0933 90.0212 11.832C90.4692 11.5707 90.9499 11.44 91.4632 11.44C92.3032 11.44 92.9799 11.6967 93.4932 12.21C94.0159 12.7233 94.2772 13.4653 94.2772 14.436V19H92.7092V14.912C92.7092 13.54 92.1399 12.854 91.0012 12.854C90.4599 12.854 89.9885 13.036 89.5872 13.4C89.1859 13.7547 88.9852 14.2773 88.9852 14.968ZM101.774 16.774C101.774 17.4833 101.517 18.0527 101.004 18.482C100.491 18.902 99.8327 19.112 99.03 19.112C98.4887 19.112 97.924 19.014 97.336 18.818C96.7573 18.622 96.244 18.3467 95.796 17.992L96.552 16.774C97.42 17.4273 98.26 17.754 99.072 17.754C99.4267 17.754 99.7067 17.6747 99.912 17.516C100.117 17.348 100.22 17.138 100.22 16.886C100.22 16.5127 99.7253 16.1767 98.736 15.878C98.6613 15.85 98.6053 15.8313 98.568 15.822C97.0187 15.402 96.244 14.702 96.244 13.722C96.244 13.0313 96.51 12.4807 97.042 12.07C97.5833 11.65 98.2833 11.44 99.142 11.44C100.001 11.44 100.813 11.692 101.578 12.196L100.99 13.358C100.383 12.9567 99.7253 12.756 99.016 12.756C98.6427 12.756 98.3393 12.826 98.106 12.966C97.8727 13.0967 97.756 13.2973 97.756 13.568C97.756 13.8107 97.8773 13.988 98.12 14.1C98.288 14.184 98.5213 14.2633 98.82 14.338C99.128 14.4127 99.3987 14.4873 99.632 14.562C99.8653 14.6367 100.089 14.7207 100.304 14.814C100.528 14.9073 100.766 15.038 101.018 15.206C101.522 15.542 101.774 16.0647 101.774 16.774ZM113.426 19H111.998V18.006C111.382 18.7433 110.556 19.112 109.52 19.112C108.745 19.112 108.101 18.8927 107.588 18.454C107.084 18.0153 106.832 17.432 106.832 16.704C106.832 15.9667 107.102 15.416 107.644 15.052C108.185 14.688 108.918 14.506 109.842 14.506H111.872V14.226C111.872 13.2367 111.321 12.742 110.22 12.742C109.529 12.742 108.81 12.994 108.064 13.498L107.364 12.518C108.269 11.7993 109.296 11.44 110.444 11.44C111.321 11.44 112.035 11.664 112.586 12.112C113.146 12.5507 113.426 13.246 113.426 14.198V19ZM111.858 16.228V15.598H110.094C108.964 15.598 108.4 15.9527 108.4 16.662C108.4 17.026 108.54 17.306 108.82 17.502C109.1 17.6887 109.487 17.782 109.982 17.782C110.486 17.782 110.924 17.642 111.298 17.362C111.671 17.082 111.858 16.704 111.858 16.228ZM117.486 10.936V11.552H119.446V12.812H117.486V19H115.918V12.812H114.98V11.552H115.918V10.978C115.918 10.194 116.151 9.57333 116.618 9.116C117.094 8.64933 117.663 8.416 118.326 8.416C118.998 8.416 119.609 8.66333 120.16 9.158L119.516 10.264C119.208 9.93733 118.886 9.774 118.55 9.774C118.214 9.774 117.953 9.88133 117.766 10.096C117.579 10.3013 117.486 10.5813 117.486 10.936ZM122.886 12.812V16.592C122.886 16.9467 122.98 17.2313 123.166 17.446C123.353 17.6513 123.614 17.754 123.95 17.754C124.286 17.754 124.608 17.5907 124.916 17.264L125.56 18.37C125.01 18.8647 124.398 19.112 123.726 19.112C123.064 19.112 122.494 18.8833 122.018 18.426C121.552 17.9593 121.318 17.334 121.318 16.55V12.812H120.38V11.552H121.318V9.214H122.886V11.552H124.846V12.812H122.886ZM133.736 15.962H127.898C127.935 16.5033 128.183 16.942 128.64 17.278C129.097 17.6047 129.62 17.768 130.208 17.768C131.141 17.768 131.851 17.474 132.336 16.886L133.232 17.866C132.429 18.6967 131.384 19.112 130.096 19.112C129.051 19.112 128.159 18.7667 127.422 18.076C126.694 17.376 126.33 16.4427 126.33 15.276C126.33 14.1 126.703 13.1667 127.45 12.476C128.197 11.7853 129.074 11.44 130.082 11.44C131.099 11.44 131.963 11.748 132.672 12.364C133.381 12.9707 133.736 13.8107 133.736 14.884V15.962ZM127.898 14.73H132.168C132.168 14.1047 131.972 13.624 131.58 13.288C131.188 12.952 130.703 12.784 130.124 12.784C129.555 12.784 129.041 12.9613 128.584 13.316C128.127 13.6613 127.898 14.1327 127.898 14.73ZM139.366 13.022C138.592 13.022 138.008 13.274 137.616 13.778C137.224 14.282 137.028 14.9587 137.028 15.808V19H135.46V11.552H137.028V13.05C137.28 12.5833 137.621 12.2007 138.05 11.902C138.489 11.6033 138.951 11.4493 139.436 11.44L139.45 13.022C139.422 13.022 139.394 13.022 139.366 13.022ZM146.798 12.812V16.592C146.798 16.9467 146.892 17.2313 147.078 17.446C147.265 17.6513 147.526 17.754 147.862 17.754C148.198 17.754 148.52 17.5907 148.828 17.264L149.472 18.37C148.922 18.8647 148.31 19.112 147.638 19.112C146.976 19.112 146.406 18.8833 145.93 18.426C145.464 17.9593 145.23 17.334 145.23 16.55V12.812H144.292V11.552H145.23V9.214H146.798V11.552H148.758V12.812H146.798ZM152.286 14.968V19H150.718V8.626H152.286V12.91C152.51 12.4527 152.846 12.0933 153.294 11.832C153.751 11.5707 154.241 11.44 154.764 11.44C155.604 11.44 156.281 11.6967 156.794 12.21C157.317 12.7233 157.578 13.4653 157.578 14.436V19H156.01V14.912C156.01 13.54 155.441 12.854 154.302 12.854C153.761 12.854 153.289 13.036 152.888 13.4C152.487 13.7547 152.286 14.2773 152.286 14.968ZM166.699 15.962H160.861C160.898 16.5033 161.145 16.942 161.603 17.278C162.06 17.6047 162.583 17.768 163.171 17.768C164.104 17.768 164.813 17.474 165.299 16.886L166.195 17.866C165.392 18.6967 164.347 19.112 163.059 19.112C162.013 19.112 161.122 18.7667 160.385 18.076C159.657 17.376 159.293 16.4427 159.293 15.276C159.293 14.1 159.666 13.1667 160.413 12.476C161.159 11.7853 162.037 11.44 163.045 11.44C164.062 11.44 164.925 11.748 165.635 12.364C166.344 12.9707 166.699 13.8107 166.699 14.884V15.962ZM160.861 14.73H165.131C165.131 14.1047 164.935 13.624 164.543 13.288C164.151 12.952 163.665 12.784 163.087 12.784C162.517 12.784 162.004 12.9613 161.547 13.316C161.089 13.6613 160.861 14.1327 160.861 14.73ZM173.833 14.968V19H172.265V8.626H173.833V12.91C174.057 12.4527 174.393 12.0933 174.841 11.832C175.298 11.5707 175.788 11.44 176.311 11.44C177.151 11.44 177.828 11.6967 178.341 12.21C178.864 12.7233 179.125 13.4653 179.125 14.436V19H177.557V14.912C177.557 13.54 176.988 12.854 175.849 12.854C175.308 12.854 174.836 13.036 174.435 13.4C174.034 13.7547 173.833 14.2773 173.833 14.968ZM187.35 19H185.922V18.006C185.306 18.7433 184.48 19.112 183.444 19.112C182.669 19.112 182.025 18.8927 181.512 18.454C181.008 18.0153 180.756 17.432 180.756 16.704C180.756 15.9667 181.026 15.416 181.568 15.052C182.109 14.688 182.842 14.506 183.766 14.506H185.796V14.226C185.796 13.2367 185.245 12.742 184.144 12.742C183.453 12.742 182.734 12.994 181.988 13.498L181.288 12.518C182.193 11.7993 183.22 11.44 184.368 11.44C185.245 11.44 185.959 11.664 186.51 12.112C187.07 12.5507 187.35 13.246 187.35 14.198V19ZM185.782 16.228V15.598H184.018C182.888 15.598 182.324 15.9527 182.324 16.662C182.324 17.026 182.464 17.306 182.744 17.502C183.024 17.6887 183.411 17.782 183.906 17.782C184.41 17.782 184.848 17.642 185.222 17.362C185.595 17.082 185.782 16.704 185.782 16.228ZM192.836 19.112C191.8 19.112 190.909 18.762 190.162 18.062C189.416 17.3527 189.042 16.4287 189.042 15.29C189.042 14.1513 189.43 13.2273 190.204 12.518C190.988 11.7993 191.94 11.44 193.06 11.44C194.18 11.44 195.128 11.8273 195.902 12.602L194.978 13.736C194.334 13.176 193.686 12.896 193.032 12.896C192.379 12.896 191.81 13.1153 191.324 13.554C190.848 13.9833 190.61 14.5433 190.61 15.234C190.61 15.9153 190.848 16.494 191.324 16.97C191.8 17.446 192.384 17.684 193.074 17.684C193.774 17.684 194.432 17.3667 195.048 16.732L195.972 17.74C195.067 18.6547 194.022 19.112 192.836 19.112ZM199.167 19H197.599V8.612H199.167V14.716L202.191 11.552H204.207L201.379 14.506L204.417 19H202.513L200.301 15.738L199.167 16.886V19ZM211.645 19H210.217V18.006C209.601 18.7433 208.775 19.112 207.739 19.112C206.964 19.112 206.32 18.8927 205.807 18.454C205.303 18.0153 205.051 17.432 205.051 16.704C205.051 15.9667 205.321 15.416 205.863 15.052C206.404 14.688 207.137 14.506 208.061 14.506H210.091V14.226C210.091 13.2367 209.54 12.742 208.439 12.742C207.748 12.742 207.029 12.994 206.283 13.498L205.583 12.518C206.488 11.7993 207.515 11.44 208.663 11.44C209.54 11.44 210.254 11.664 210.805 12.112C211.365 12.5507 211.645 13.246 211.645 14.198V19ZM210.077 16.228V15.598H208.313C207.183 15.598 206.619 15.9527 206.619 16.662C206.619 17.026 206.759 17.306 207.039 17.502C207.319 17.6887 207.706 17.782 208.201 17.782C208.705 17.782 209.143 17.642 209.517 17.362C209.89 17.082 210.077 16.704 210.077 16.228ZM215.677 12.812V16.592C215.677 16.9467 215.771 17.2313 215.957 17.446C216.144 17.6513 216.405 17.754 216.741 17.754C217.077 17.754 217.399 17.5907 217.707 17.264L218.351 18.37C217.801 18.8647 217.189 19.112 216.517 19.112C215.855 19.112 215.285 18.8833 214.809 18.426C214.343 17.9593 214.109 17.334 214.109 16.55V12.812H213.171V11.552H214.109V9.214H215.677V11.552H217.637V12.812H215.677ZM221.165 14.968V19H219.597V8.626H221.165V12.91C221.389 12.4527 221.725 12.0933 222.173 11.832C222.63 11.5707 223.12 11.44 223.643 11.44C224.483 11.44 225.16 11.6967 225.673 12.21C226.196 12.7233 226.457 13.4653 226.457 14.436V19H224.889V14.912C224.889 13.54 224.32 12.854 223.181 12.854C222.64 12.854 222.168 13.036 221.767 13.4C221.366 13.7547 221.165 14.2773 221.165 14.968ZM230.384 17.04C230.832 17.488 231.396 17.712 232.078 17.712C232.759 17.712 233.319 17.488 233.758 17.04C234.206 16.5827 234.43 15.9947 234.43 15.276C234.43 14.5573 234.206 13.974 233.758 13.526C233.319 13.0687 232.759 12.84 232.078 12.84C231.396 12.84 230.832 13.0687 230.384 13.526C229.945 13.974 229.726 14.5573 229.726 15.276C229.726 15.9947 229.945 16.5827 230.384 17.04ZM234.878 18.006C234.131 18.7433 233.198 19.112 232.078 19.112C230.958 19.112 230.024 18.7433 229.278 18.006C228.531 17.2593 228.158 16.3493 228.158 15.276C228.158 14.2027 228.531 13.2973 229.278 12.56C230.024 11.8133 230.958 11.44 232.078 11.44C233.198 11.44 234.131 11.8133 234.878 12.56C235.624 13.2973 235.998 14.2027 235.998 15.276C235.998 16.3493 235.624 17.2593 234.878 18.006ZM239.348 14.968V19H237.78V11.552H239.348V12.91C239.6 12.4527 239.946 12.0933 240.384 11.832C240.832 11.5707 241.313 11.44 241.826 11.44C242.666 11.44 243.343 11.6967 243.856 12.21C244.379 12.7233 244.64 13.4653 244.64 14.436V19H243.072V14.912C243.072 13.54 242.503 12.854 241.364 12.854C240.823 12.854 240.352 13.036 239.95 13.4C239.549 13.7547 239.348 14.2773 239.348 14.968ZM257.603 15.962H251.765C251.802 16.5033 252.05 16.942 252.507 17.278C252.964 17.6047 253.487 17.768 254.075 17.768C255.008 17.768 255.718 17.474 256.203 16.886L257.099 17.866C256.296 18.6967 255.251 19.112 253.963 19.112C252.918 19.112 252.026 18.7667 251.289 18.076C250.561 17.376 250.197 16.4427 250.197 15.276C250.197 14.1 250.57 13.1667 251.317 12.476C252.064 11.7853 252.941 11.44 253.949 11.44C254.966 11.44 255.83 11.748 256.539 12.364C257.248 12.9707 257.603 13.8107 257.603 14.884V15.962ZM251.765 14.73H256.035C256.035 14.1047 255.839 13.624 255.447 13.288C255.055 12.952 254.57 12.784 253.991 12.784C253.422 12.784 252.908 12.9613 252.451 13.316C251.994 13.6613 251.765 14.1327 251.765 14.73ZM260.895 14.968V19H259.327V11.552H260.895V12.91C261.147 12.4527 261.493 12.0933 261.931 11.832C262.379 11.5707 262.86 11.44 263.373 11.44C264.213 11.44 264.89 11.6967 265.403 12.21C265.926 12.7233 266.187 13.4653 266.187 14.436V19H264.619V14.912C264.619 13.54 264.05 12.854 262.911 12.854C262.37 12.854 261.899 13.036 261.497 13.4C261.096 13.7547 260.895 14.2773 260.895 14.968ZM271.416 19.112C270.473 19.112 269.652 18.7573 268.952 18.048C268.252 17.3387 267.902 16.4053 267.902 15.248C267.902 14.0907 268.261 13.1667 268.98 12.476C269.699 11.7853 270.553 11.44 271.542 11.44C272.541 11.44 273.343 11.86 273.95 12.7V8.612H275.518V19H273.95V17.88C273.371 18.7013 272.527 19.112 271.416 19.112ZM269.47 15.318C269.47 16.0273 269.699 16.606 270.156 17.054C270.613 17.502 271.15 17.726 271.766 17.726C272.382 17.726 272.905 17.502 273.334 17.054C273.763 16.5967 273.978 16.0133 273.978 15.304C273.978 14.5947 273.763 14.002 273.334 13.526C272.905 13.05 272.377 12.812 271.752 12.812C271.127 12.812 270.59 13.05 270.142 13.526C269.694 14.002 269.47 14.5993 269.47 15.318ZM283.09 16.774C283.09 17.4833 282.834 18.0527 282.32 18.482C281.807 18.902 281.149 19.112 280.346 19.112C279.805 19.112 279.24 19.014 278.652 18.818C278.074 18.622 277.56 18.3467 277.112 17.992L277.868 16.774C278.736 17.4273 279.576 17.754 280.388 17.754C280.743 17.754 281.023 17.6747 281.228 17.516C281.434 17.348 281.536 17.138 281.536 16.886C281.536 16.5127 281.042 16.1767 280.052 15.878C279.978 15.85 279.922 15.8313 279.884 15.822C278.335 15.402 277.56 14.702 277.56 13.722C277.56 13.0313 277.826 12.4807 278.358 12.07C278.9 11.65 279.6 11.44 280.458 11.44C281.317 11.44 282.129 11.692 282.894 12.196L282.306 13.358C281.7 12.9567 281.042 12.756 280.332 12.756C279.959 12.756 279.656 12.826 279.422 12.966C279.189 13.0967 279.072 13.2973 279.072 13.568C279.072 13.8107 279.194 13.988 279.436 14.1C279.604 14.184 279.838 14.2633 280.136 14.338C280.444 14.4127 280.715 14.4873 280.948 14.562C281.182 14.6367 281.406 14.7207 281.62 14.814C281.844 14.9073 282.082 15.038 282.334 15.206C282.838 15.542 283.09 16.0647 283.09 16.774Z" fill="white"/>
<line y1="40.5" x2="427" y2="40.5" stroke="#D434FE"/>
<path d="M418.78 18V14.2H414.96V12.32H418.78V8.56H420.58V12.32H424.4V14.2H420.58V18H418.78Z" fill="#D434FE"/>
</svg>
