<svg width="427" height="41" viewBox="0 0 427 41" fill="none" xmlns="http://www.w3.org/2000/svg">
<path d="M4.41 16.256L6.594 9.214H8.078L10.262 16.256L12.726 9.214H14.504L11.088 19H9.45L7.392 12.294H7.28L5.222 19H3.584L0.168 9.214H1.946L4.41 16.256ZM17.3719 14.968V19H15.8039V8.626H17.3719V12.91C17.5959 12.4527 17.9319 12.0933 18.3799 11.832C18.8373 11.5707 19.3273 11.44 19.8499 11.44C20.6899 11.44 21.3666 11.6967 21.8799 12.21C22.4026 12.7233 22.6639 13.4653 22.6639 14.436V19H21.0959V14.912C21.0959 13.54 20.5266 12.854 19.3879 12.854C18.8466 12.854 18.3753 13.036 17.9739 13.4C17.5726 13.7547 17.3719 14.2773 17.3719 14.968ZM30.8887 19H29.4607V18.006C28.8447 18.7433 28.0187 19.112 26.9827 19.112C26.208 19.112 25.564 18.8927 25.0507 18.454C24.5467 18.0153 24.2947 17.432 24.2947 16.704C24.2947 15.9667 24.5654 15.416 25.1067 15.052C25.648 14.688 26.3807 14.506 27.3047 14.506H29.3347V14.226C29.3347 13.2367 28.784 12.742 27.6827 12.742C26.992 12.742 26.2734 12.994 25.5267 13.498L24.8267 12.518C25.732 11.7993 26.7587 11.44 27.9067 11.44C28.784 11.44 29.498 11.664 30.0487 12.112C30.6087 12.5507 30.8887 13.246 30.8887 14.198V19ZM29.3207 16.228V15.598H27.5567C26.4274 15.598 25.8627 15.9527 25.8627 16.662C25.8627 17.026 26.0027 17.306 26.2827 17.502C26.5627 17.6887 26.95 17.782 27.4447 17.782C27.9487 17.782 28.3874 17.642 28.7607 17.362C29.134 17.082 29.3207 16.704 29.3207 16.228ZM34.9215 12.812V16.592C34.9215 16.9467 35.0148 17.2313 35.2015 17.446C35.3881 17.6513 35.6495 17.754 35.9855 17.754C36.3215 17.754 36.6435 17.5907 36.9515 17.264L37.5955 18.37C37.0448 18.8647 36.4335 19.112 35.7615 19.112C35.0988 19.112 34.5295 18.8833 34.0535 18.426C33.5868 17.9593 33.3535 17.334 33.3535 16.55V12.812H32.4155V11.552H33.3535V9.214H34.9215V11.552H36.8815V12.812H34.9215ZM44.2508 14.968V19H42.6828V8.626H44.2508V12.91C44.4748 12.4527 44.8108 12.0933 45.2588 11.832C45.7162 11.5707 46.2062 11.44 46.7288 11.44C47.5688 11.44 48.2455 11.6967 48.7588 12.21C49.2815 12.7233 49.5428 13.4653 49.5428 14.436V19H47.9748V14.912C47.9748 13.54 47.4055 12.854 46.2668 12.854C45.7255 12.854 45.2542 13.036 44.8528 13.4C44.4515 13.7547 44.2508 14.2773 44.2508 14.968ZM57.7676 19H56.3396V18.006C55.7236 18.7433 54.8976 19.112 53.8616 19.112C53.0869 19.112 52.4429 18.8927 51.9296 18.454C51.4256 18.0153 51.1736 17.432 51.1736 16.704C51.1736 15.9667 51.4443 15.416 51.9856 15.052C52.5269 14.688 53.2596 14.506 54.1836 14.506H56.2136V14.226C56.2136 13.2367 55.6629 12.742 54.5616 12.742C53.8709 12.742 53.1523 12.994 52.4056 13.498L51.7056 12.518C52.6109 11.7993 53.6376 11.44 54.7856 11.44C55.6629 11.44 56.3769 11.664 56.9276 12.112C57.4876 12.5507 57.7676 13.246 57.7676 14.198V19ZM56.1996 16.228V15.598H54.4356C53.3063 15.598 52.7416 15.9527 52.7416 16.662C52.7416 17.026 52.8816 17.306 53.1616 17.502C53.4416 17.6887 53.8289 17.782 54.3236 17.782C54.8276 17.782 55.2663 17.642 55.6396 17.362C56.0129 17.082 56.1996 16.704 56.1996 16.228ZM63.9404 11.44C64.9391 11.44 65.7931 11.7853 66.5024 12.476C67.2117 13.1667 67.5664 14.086 67.5664 15.234C67.5664 16.382 67.2117 17.3153 66.5024 18.034C65.8024 18.7527 64.9811 19.112 64.0384 19.112C63.1051 19.112 62.2651 18.7013 61.5184 17.88V21.716H59.9504V11.552H61.5184V12.854C62.1344 11.9113 62.9417 11.44 63.9404 11.44ZM61.4904 15.29C61.4904 15.9993 61.7051 16.5827 62.1344 17.04C62.5637 17.488 63.0864 17.712 63.7024 17.712C64.3184 17.712 64.8551 17.488 65.3124 17.04C65.7697 16.592 65.9984 16.0133 65.9984 15.304C65.9984 14.5853 65.7744 13.9927 65.3264 13.526C64.8784 13.05 64.3417 12.812 63.7164 12.812C63.0911 12.812 62.5637 13.05 62.1344 13.526C61.7051 13.9927 61.4904 14.5807 61.4904 15.29ZM73.3467 11.44C74.3453 11.44 75.1993 11.7853 75.9087 12.476C76.618 13.1667 76.9727 14.086 76.9727 15.234C76.9727 16.382 76.618 17.3153 75.9087 18.034C75.2087 18.7527 74.3873 19.112 73.4447 19.112C72.5113 19.112 71.6713 18.7013 70.9247 17.88V21.716H69.3567V11.552H70.9247V12.854C71.5407 11.9113 72.348 11.44 73.3467 11.44ZM70.8967 15.29C70.8967 15.9993 71.1113 16.5827 71.5407 17.04C71.97 17.488 72.4927 17.712 73.1087 17.712C73.7247 17.712 74.2613 17.488 74.7187 17.04C75.176 16.592 75.4047 16.0133 75.4047 15.304C75.4047 14.5853 75.1807 13.9927 74.7327 13.526C74.2847 13.05 73.748 12.812 73.1227 12.812C72.4973 12.812 71.97 13.05 71.5407 13.526C71.1113 13.9927 70.8967 14.5807 70.8967 15.29ZM85.6929 15.962H79.8549C79.8922 16.5033 80.1396 16.942 80.5969 17.278C81.0542 17.6047 81.5769 17.768 82.1649 17.768C83.0982 17.768 83.8076 17.474 84.2929 16.886L85.1889 17.866C84.3862 18.6967 83.3409 19.112 82.0529 19.112C81.0076 19.112 80.1162 18.7667 79.3789 18.076C78.6509 17.376 78.2869 16.4427 78.2869 15.276C78.2869 14.1 78.6602 13.1667 79.4069 12.476C80.1536 11.7853 81.0309 11.44 82.0389 11.44C83.0562 11.44 83.9196 11.748 84.6289 12.364C85.3382 12.9707 85.6929 13.8107 85.6929 14.884V15.962ZM79.8549 14.73H84.1249C84.1249 14.1047 83.9289 13.624 83.5369 13.288C83.1449 12.952 82.6596 12.784 82.0809 12.784C81.5116 12.784 80.9982 12.9613 80.5409 13.316C80.0836 13.6613 79.8549 14.1327 79.8549 14.73ZM88.9852 14.968V19H87.4172V11.552H88.9852V12.91C89.2372 12.4527 89.5825 12.0933 90.0212 11.832C90.4692 11.5707 90.9499 11.44 91.4632 11.44C92.3032 11.44 92.9799 11.6967 93.4932 12.21C94.0159 12.7233 94.2772 13.4653 94.2772 14.436V19H92.7092V14.912C92.7092 13.54 92.1399 12.854 91.0012 12.854C90.4599 12.854 89.9885 13.036 89.5872 13.4C89.1859 13.7547 88.9852 14.2773 88.9852 14.968ZM101.774 16.774C101.774 17.4833 101.517 18.0527 101.004 18.482C100.491 18.902 99.8327 19.112 99.03 19.112C98.4887 19.112 97.924 19.014 97.336 18.818C96.7573 18.622 96.244 18.3467 95.796 17.992L96.552 16.774C97.42 17.4273 98.26 17.754 99.072 17.754C99.4267 17.754 99.7067 17.6747 99.912 17.516C100.117 17.348 100.22 17.138 100.22 16.886C100.22 16.5127 99.7253 16.1767 98.736 15.878C98.6613 15.85 98.6053 15.8313 98.568 15.822C97.0187 15.402 96.244 14.702 96.244 13.722C96.244 13.0313 96.51 12.4807 97.042 12.07C97.5833 11.65 98.2833 11.44 99.142 11.44C100.001 11.44 100.813 11.692 101.578 12.196L100.99 13.358C100.383 12.9567 99.7253 12.756 99.016 12.756C98.6427 12.756 98.3393 12.826 98.106 12.966C97.8727 13.0967 97.756 13.2973 97.756 13.568C97.756 13.8107 97.8773 13.988 98.12 14.1C98.288 14.184 98.5213 14.2633 98.82 14.338C99.128 14.4127 99.3987 14.4873 99.632 14.562C99.8653 14.6367 100.089 14.7207 100.304 14.814C100.528 14.9073 100.766 15.038 101.018 15.206C101.522 15.542 101.774 16.0647 101.774 16.774ZM108.96 19H107.392V11.552H108.96V19ZM107.49 10.068C107.294 9.872 107.196 9.63867 107.196 9.368C107.196 9.09733 107.294 8.864 107.49 8.668C107.686 8.472 107.919 8.374 108.19 8.374C108.46 8.374 108.694 8.472 108.89 8.668C109.086 8.864 109.184 9.09733 109.184 9.368C109.184 9.63867 109.086 9.872 108.89 10.068C108.694 10.264 108.46 10.362 108.19 10.362C107.919 10.362 107.686 10.264 107.49 10.068ZM113.166 10.936V11.552H115.126V12.812H113.166V19H111.598V12.812H110.66V11.552H111.598V10.978C111.598 10.194 111.831 9.57333 112.298 9.116C112.774 8.64933 113.343 8.416 114.006 8.416C114.678 8.416 115.289 8.66333 115.84 9.158L115.196 10.264C114.888 9.93733 114.566 9.774 114.23 9.774C113.894 9.774 113.632 9.88133 113.446 10.096C113.259 10.3013 113.166 10.5813 113.166 10.936ZM120.7 9.214H122.352V19H120.7V9.214ZM131.717 19.112C130.774 19.112 129.953 18.7573 129.253 18.048C128.553 17.3387 128.203 16.4053 128.203 15.248C128.203 14.0907 128.562 13.1667 129.281 12.476C130 11.7853 130.854 11.44 131.843 11.44C132.842 11.44 133.644 11.86 134.251 12.7V8.612H135.819V19H134.251V17.88C133.672 18.7013 132.828 19.112 131.717 19.112ZM129.771 15.318C129.771 16.0273 130 16.606 130.457 17.054C130.914 17.502 131.451 17.726 132.067 17.726C132.683 17.726 133.206 17.502 133.635 17.054C134.064 16.5967 134.279 16.0133 134.279 15.304C134.279 14.5947 134.064 14.002 133.635 13.526C133.206 13.05 132.678 12.812 132.053 12.812C131.428 12.812 130.891 13.05 130.443 13.526C129.995 14.002 129.771 14.5993 129.771 15.318ZM139.821 17.04C140.269 17.488 140.834 17.712 141.515 17.712C142.197 17.712 142.757 17.488 143.195 17.04C143.643 16.5827 143.867 15.9947 143.867 15.276C143.867 14.5573 143.643 13.974 143.195 13.526C142.757 13.0687 142.197 12.84 141.515 12.84C140.834 12.84 140.269 13.0687 139.821 13.526C139.383 13.974 139.163 14.5573 139.163 15.276C139.163 15.9947 139.383 16.5827 139.821 17.04ZM144.315 18.006C143.569 18.7433 142.635 19.112 141.515 19.112C140.395 19.112 139.462 18.7433 138.715 18.006C137.969 17.2593 137.595 16.3493 137.595 15.276C137.595 14.2027 137.969 13.2973 138.715 12.56C139.462 11.8133 140.395 11.44 141.515 11.44C142.635 11.44 143.569 11.8133 144.315 12.56C145.062 13.2973 145.435 14.2027 145.435 15.276C145.435 16.3493 145.062 17.2593 144.315 18.006ZM148.786 14.968V19H147.218V11.552H148.786V12.91C149.038 12.4527 149.383 12.0933 149.822 11.832C150.27 11.5707 150.751 11.44 151.264 11.44C152.104 11.44 152.781 11.6967 153.294 12.21C153.817 12.7233 154.078 13.4653 154.078 14.436V19H152.51V14.912C152.51 13.54 151.941 12.854 150.802 12.854C150.261 12.854 149.789 13.036 149.388 13.4C148.987 13.7547 148.786 14.2773 148.786 14.968ZM156.213 12.658V9.214H157.305V12.658H156.213ZM161.455 12.812V16.592C161.455 16.9467 161.548 17.2313 161.735 17.446C161.921 17.6513 162.183 17.754 162.519 17.754C162.855 17.754 163.177 17.5907 163.485 17.264L164.129 18.37C163.578 18.8647 162.967 19.112 162.295 19.112C161.632 19.112 161.063 18.8833 160.587 18.426C160.12 17.9593 159.887 17.334 159.887 16.55V12.812H158.949V11.552H159.887V9.214H161.455V11.552H163.415V12.812H161.455ZM170.784 14.968V19H169.216V8.626H170.784V12.91C171.008 12.4527 171.344 12.0933 171.792 11.832C172.249 11.5707 172.739 11.44 173.262 11.44C174.102 11.44 174.779 11.6967 175.292 12.21C175.815 12.7233 176.076 13.4653 176.076 14.436V19H174.508V14.912C174.508 13.54 173.939 12.854 172.8 12.854C172.259 12.854 171.787 13.036 171.386 13.4C170.985 13.7547 170.784 14.2773 170.784 14.968ZM184.301 19H182.873V18.006C182.257 18.7433 181.431 19.112 180.395 19.112C179.62 19.112 178.976 18.8927 178.463 18.454C177.959 18.0153 177.707 17.432 177.707 16.704C177.707 15.9667 177.977 15.416 178.519 15.052C179.06 14.688 179.793 14.506 180.717 14.506H182.747V14.226C182.747 13.2367 182.196 12.742 181.095 12.742C180.404 12.742 179.685 12.994 178.939 13.498L178.239 12.518C179.144 11.7993 180.171 11.44 181.319 11.44C182.196 11.44 182.91 11.664 183.461 12.112C184.021 12.5507 184.301 13.246 184.301 14.198V19ZM182.733 16.228V15.598H180.969C179.839 15.598 179.275 15.9527 179.275 16.662C179.275 17.026 179.415 17.306 179.695 17.502C179.975 17.6887 180.362 17.782 180.857 17.782C181.361 17.782 181.799 17.642 182.173 17.362C182.546 17.082 182.733 16.704 182.733 16.228ZM188.376 19L185.38 11.552H187.004L189.272 17.18L191.54 11.552H193.164L190.168 19H188.376ZM201.343 15.962H195.505C195.543 16.5033 195.79 16.942 196.247 17.278C196.705 17.6047 197.227 17.768 197.815 17.768C198.749 17.768 199.458 17.474 199.943 16.886L200.839 17.866C200.037 18.6967 198.991 19.112 197.703 19.112C196.658 19.112 195.767 18.7667 195.029 18.076C194.301 17.376 193.937 16.4427 193.937 15.276C193.937 14.1 194.311 13.1667 195.057 12.476C195.804 11.7853 196.681 11.44 197.689 11.44C198.707 11.44 199.57 11.748 200.279 12.364C200.989 12.9707 201.343 13.8107 201.343 14.884V15.962ZM195.505 14.73H199.775C199.775 14.1047 199.579 13.624 199.187 13.288C198.795 12.952 198.31 12.784 197.731 12.784C197.162 12.784 196.649 12.9613 196.191 13.316C195.734 13.6613 195.505 14.1327 195.505 14.73ZM212.943 19H211.515V18.006C210.899 18.7433 210.073 19.112 209.037 19.112C208.263 19.112 207.619 18.8927 207.105 18.454C206.601 18.0153 206.349 17.432 206.349 16.704C206.349 15.9667 206.62 15.416 207.161 15.052C207.703 14.688 208.435 14.506 209.359 14.506H211.389V14.226C211.389 13.2367 210.839 12.742 209.737 12.742C209.047 12.742 208.328 12.994 207.581 13.498L206.881 12.518C207.787 11.7993 208.813 11.44 209.961 11.44C210.839 11.44 211.553 11.664 212.103 12.112C212.663 12.5507 212.943 13.246 212.943 14.198V19ZM211.375 16.228V15.598H209.611C208.482 15.598 207.917 15.9527 207.917 16.662C207.917 17.026 208.057 17.306 208.337 17.502C208.617 17.6887 209.005 17.782 209.499 17.782C210.003 17.782 210.442 17.642 210.815 17.362C211.189 17.082 211.375 16.704 211.375 16.228ZM216.694 14.968V19H215.126V11.552H216.694V12.91C216.946 12.4527 217.292 12.0933 217.73 11.832C218.178 11.5707 218.659 11.44 219.172 11.44C220.012 11.44 220.689 11.6967 221.202 12.21C221.725 12.7233 221.986 13.4653 221.986 14.436V19H220.418V14.912C220.418 13.54 219.849 12.854 218.71 12.854C218.169 12.854 217.698 13.036 217.296 13.4C216.895 13.7547 216.694 14.2773 216.694 14.968ZM229.587 19H228.019V11.552H229.587V19ZM228.117 10.068C227.921 9.872 227.823 9.63867 227.823 9.368C227.823 9.09733 227.921 8.864 228.117 8.668C228.313 8.472 228.546 8.374 228.817 8.374C229.087 8.374 229.321 8.472 229.517 8.668C229.713 8.864 229.811 9.09733 229.811 9.368C229.811 9.63867 229.713 9.872 229.517 10.068C229.321 10.264 229.087 10.362 228.817 10.362C228.546 10.362 228.313 10.264 228.117 10.068ZM234.899 19.112C233.956 19.112 233.135 18.7573 232.435 18.048C231.735 17.3387 231.385 16.4053 231.385 15.248C231.385 14.0907 231.744 13.1667 232.463 12.476C233.181 11.7853 234.035 11.44 235.025 11.44C236.023 11.44 236.826 11.86 237.433 12.7V8.612H239.001V19H237.433V17.88C236.854 18.7013 236.009 19.112 234.899 19.112ZM232.953 15.318C232.953 16.0273 233.181 16.606 233.639 17.054C234.096 17.502 234.633 17.726 235.249 17.726C235.865 17.726 236.387 17.502 236.817 17.054C237.246 16.5967 237.461 16.0133 237.461 15.304C237.461 14.5947 237.246 14.002 236.817 13.526C236.387 13.05 235.86 12.812 235.235 12.812C234.609 12.812 234.073 13.05 233.625 13.526C233.177 14.002 232.953 14.5993 232.953 15.318ZM248.197 15.962H242.359C242.396 16.5033 242.643 16.942 243.101 17.278C243.558 17.6047 244.081 17.768 244.669 17.768C245.602 17.768 246.311 17.474 246.797 16.886L247.693 17.866C246.89 18.6967 245.845 19.112 244.557 19.112C243.511 19.112 242.62 18.7667 241.883 18.076C241.155 17.376 240.791 16.4427 240.791 15.276C240.791 14.1 241.164 13.1667 241.911 12.476C242.657 11.7853 243.535 11.44 244.543 11.44C245.56 11.44 246.423 11.748 247.133 12.364C247.842 12.9707 248.197 13.8107 248.197 14.884V15.962ZM242.359 14.73H246.629C246.629 14.1047 246.433 13.624 246.041 13.288C245.649 12.952 245.163 12.784 244.585 12.784C244.015 12.784 243.502 12.9613 243.045 13.316C242.587 13.6613 242.359 14.1327 242.359 14.73ZM255.955 19H254.527V18.006C253.911 18.7433 253.085 19.112 252.049 19.112C251.274 19.112 250.63 18.8927 250.117 18.454C249.613 18.0153 249.361 17.432 249.361 16.704C249.361 15.9667 249.632 15.416 250.173 15.052C250.714 14.688 251.447 14.506 252.371 14.506H254.401V14.226C254.401 13.2367 253.85 12.742 252.749 12.742C252.058 12.742 251.34 12.994 250.593 13.498L249.893 12.518C250.798 11.7993 251.825 11.44 252.973 11.44C253.85 11.44 254.564 11.664 255.115 12.112C255.675 12.5507 255.955 13.246 255.955 14.198V19ZM254.387 16.228V15.598H252.623C251.494 15.598 250.929 15.9527 250.929 16.662C250.929 17.026 251.069 17.306 251.349 17.502C251.629 17.6887 252.016 17.782 252.511 17.782C253.015 17.782 253.454 17.642 253.827 17.362C254.2 17.082 254.387 16.704 254.387 16.228ZM263.912 10.936V11.552H265.872V12.812H263.912V19H262.344V12.812H261.406V11.552H262.344V10.978C262.344 10.194 262.577 9.57333 263.044 9.116C263.52 8.64933 264.089 8.416 264.752 8.416C265.424 8.416 266.035 8.66333 266.586 9.158L265.942 10.264C265.634 9.93733 265.312 9.774 264.976 9.774C264.64 9.774 264.378 9.88133 264.192 10.096C264.005 10.3013 263.912 10.5813 263.912 10.936ZM268.938 17.04C269.386 17.488 269.951 17.712 270.632 17.712C271.314 17.712 271.874 17.488 272.312 17.04C272.76 16.5827 272.984 15.9947 272.984 15.276C272.984 14.5573 272.76 13.974 272.312 13.526C271.874 13.0687 271.314 12.84 270.632 12.84C269.951 12.84 269.386 13.0687 268.938 13.526C268.5 13.974 268.28 14.5573 268.28 15.276C268.28 15.9947 268.5 16.5827 268.938 17.04ZM273.432 18.006C272.686 18.7433 271.752 19.112 270.632 19.112C269.512 19.112 268.579 18.7433 267.832 18.006C267.086 17.2593 266.712 16.3493 266.712 15.276C266.712 14.2027 267.086 13.2973 267.832 12.56C268.579 11.8133 269.512 11.44 270.632 11.44C271.752 11.44 272.686 11.8133 273.432 12.56C274.179 13.2973 274.552 14.2027 274.552 15.276C274.552 16.3493 274.179 17.2593 273.432 18.006ZM280.241 13.022C279.467 13.022 278.883 13.274 278.491 13.778C278.099 14.282 277.903 14.9587 277.903 15.808V19H276.335V11.552H277.903V13.05C278.155 12.5833 278.496 12.2007 278.925 11.902C279.364 11.6033 279.826 11.4493 280.311 11.44L280.325 13.022C280.297 13.022 280.269 13.022 280.241 13.022ZM291.775 19H290.347V18.006C289.731 18.7433 288.905 19.112 287.869 19.112C287.095 19.112 286.451 18.8927 285.937 18.454C285.433 18.0153 285.181 17.432 285.181 16.704C285.181 15.9667 285.452 15.416 285.993 15.052C286.535 14.688 287.267 14.506 288.191 14.506H290.221V14.226C290.221 13.2367 289.671 12.742 288.569 12.742C287.879 12.742 287.16 12.994 286.413 13.498L285.713 12.518C286.619 11.7993 287.645 11.44 288.793 11.44C289.671 11.44 290.385 11.664 290.935 12.112C291.495 12.5507 291.775 13.246 291.775 14.198V19ZM290.207 16.228V15.598H288.443C287.314 15.598 286.749 15.9527 286.749 16.662C286.749 17.026 286.889 17.306 287.169 17.502C287.449 17.6887 287.837 17.782 288.331 17.782C288.835 17.782 289.274 17.642 289.647 17.362C290.021 17.082 290.207 16.704 290.207 16.228ZM301.79 11.44C302.789 11.44 303.643 11.7853 304.352 12.476C305.061 13.1667 305.416 14.086 305.416 15.234C305.416 16.382 305.061 17.3153 304.352 18.034C303.652 18.7527 302.831 19.112 301.888 19.112C300.955 19.112 300.115 18.7013 299.368 17.88V21.716H297.8V11.552H299.368V12.854C299.984 11.9113 300.791 11.44 301.79 11.44ZM299.34 15.29C299.34 15.9993 299.555 16.5827 299.984 17.04C300.413 17.488 300.936 17.712 301.552 17.712C302.168 17.712 302.705 17.488 303.162 17.04C303.619 16.592 303.848 16.0133 303.848 15.304C303.848 14.5853 303.624 13.9927 303.176 13.526C302.728 13.05 302.191 12.812 301.566 12.812C300.941 12.812 300.413 13.05 299.984 13.526C299.555 13.9927 299.34 14.5807 299.34 15.29ZM311.112 13.022C310.338 13.022 309.754 13.274 309.362 13.778C308.97 14.282 308.774 14.9587 308.774 15.808V19H307.206V11.552H308.774V13.05C309.026 12.5833 309.367 12.2007 309.796 11.902C310.235 11.6033 310.697 11.4493 311.182 11.44L311.196 13.022C311.168 13.022 311.14 13.022 311.112 13.022ZM314.37 17.04C314.818 17.488 315.383 17.712 316.064 17.712C316.745 17.712 317.305 17.488 317.744 17.04C318.192 16.5827 318.416 15.9947 318.416 15.276C318.416 14.5573 318.192 13.974 317.744 13.526C317.305 13.0687 316.745 12.84 316.064 12.84C315.383 12.84 314.818 13.0687 314.37 13.526C313.931 13.974 313.712 14.5573 313.712 15.276C313.712 15.9947 313.931 16.5827 314.37 17.04ZM318.864 18.006C318.117 18.7433 317.184 19.112 316.064 19.112C314.944 19.112 314.011 18.7433 313.264 18.006C312.517 17.2593 312.144 16.3493 312.144 15.276C312.144 14.2027 312.517 13.2973 313.264 12.56C314.011 11.8133 314.944 11.44 316.064 11.44C317.184 11.44 318.117 11.8133 318.864 12.56C319.611 13.2973 319.984 14.2027 319.984 15.276C319.984 16.3493 319.611 17.2593 318.864 18.006ZM321.767 19.35V11.552H323.335V19.406C323.335 20.19 323.097 20.8107 322.621 21.268C322.154 21.7347 321.585 21.968 320.913 21.968C320.25 21.968 319.643 21.7207 319.093 21.226L319.821 20.05C320.138 20.358 320.455 20.512 320.773 20.512C321.099 20.512 321.347 20.4093 321.515 20.204C321.683 19.9987 321.767 19.714 321.767 19.35ZM321.837 10.068C321.641 9.872 321.543 9.63867 321.543 9.368C321.543 9.09733 321.641 8.864 321.837 8.668C322.033 8.472 322.266 8.374 322.537 8.374C322.807 8.374 323.041 8.472 323.237 8.668C323.433 8.864 323.531 9.09733 323.531 9.368C323.531 9.63867 323.433 9.872 323.237 10.068C323.041 10.264 322.807 10.362 322.537 10.362C322.266 10.362 322.033 10.264 321.837 10.068ZM332.539 15.962H326.701C326.738 16.5033 326.985 16.942 327.443 17.278C327.9 17.6047 328.423 17.768 329.011 17.768C329.944 17.768 330.653 17.474 331.139 16.886L332.035 17.866C331.232 18.6967 330.187 19.112 328.899 19.112C327.853 19.112 326.962 18.7667 326.225 18.076C325.497 17.376 325.133 16.4427 325.133 15.276C325.133 14.1 325.506 13.1667 326.253 12.476C326.999 11.7853 327.877 11.44 328.885 11.44C329.902 11.44 330.765 11.748 331.475 12.364C332.184 12.9707 332.539 13.8107 332.539 14.884V15.962ZM326.701 14.73H330.971C330.971 14.1047 330.775 13.624 330.383 13.288C329.991 12.952 329.505 12.784 328.927 12.784C328.357 12.784 327.844 12.9613 327.387 13.316C326.929 13.6613 326.701 14.1327 326.701 14.73ZM337.567 19.112C336.531 19.112 335.64 18.762 334.893 18.062C334.146 17.3527 333.773 16.4287 333.773 15.29C333.773 14.1513 334.16 13.2273 334.935 12.518C335.719 11.7993 336.671 11.44 337.791 11.44C338.911 11.44 339.858 11.8273 340.633 12.602L339.709 13.736C339.065 13.176 338.416 12.896 337.763 12.896C337.11 12.896 336.54 13.1153 336.055 13.554C335.579 13.9833 335.341 14.5433 335.341 15.234C335.341 15.9153 335.579 16.494 336.055 16.97C336.531 17.446 337.114 17.684 337.805 17.684C338.505 17.684 339.163 17.3667 339.779 16.732L340.703 17.74C339.798 18.6547 338.752 19.112 337.567 19.112ZM344.261 12.812V16.592C344.261 16.9467 344.355 17.2313 344.541 17.446C344.728 17.6513 344.989 17.754 345.325 17.754C345.661 17.754 345.983 17.5907 346.291 17.264L346.935 18.37C346.385 18.8647 345.773 19.112 345.101 19.112C344.439 19.112 343.869 18.8833 343.393 18.426C342.927 17.9593 342.693 17.334 342.693 16.55V12.812H341.755V11.552H342.693V9.214H344.261V11.552H346.221V12.812H344.261ZM351.275 15.962H349.693V15.108C349.693 14.7347 349.735 14.4593 349.819 14.282C349.912 14.0953 350.108 13.8527 350.407 13.554L351.429 12.532C351.644 12.2987 351.751 12.0093 351.751 11.664C351.751 11.3187 351.639 11.034 351.415 10.81C351.191 10.5767 350.902 10.46 350.547 10.46C350.192 10.46 349.894 10.572 349.651 10.796C349.418 11.0107 349.282 11.3 349.245 11.664H347.551C347.644 10.8333 347.966 10.1847 348.517 9.718C349.077 9.242 349.772 9.004 350.603 9.004C351.434 9.004 352.11 9.23267 352.633 9.69C353.156 10.138 353.417 10.768 353.417 11.58C353.417 12.14 353.263 12.6067 352.955 12.98C352.778 13.204 352.642 13.3627 352.549 13.456C352.456 13.5493 352.33 13.6707 352.171 13.82C352.022 13.96 351.891 14.086 351.779 14.198C351.676 14.3007 351.592 14.3893 351.527 14.464C351.359 14.6693 351.275 14.9587 351.275 15.332V15.962ZM350.505 19.07C350.216 19.07 349.964 18.972 349.749 18.776C349.534 18.5707 349.427 18.328 349.427 18.048C349.427 17.7587 349.53 17.5113 349.735 17.306C349.95 17.1007 350.202 16.998 350.491 16.998C350.79 16.998 351.046 17.1007 351.261 17.306C351.476 17.502 351.583 17.7447 351.583 18.034C351.583 18.314 351.476 18.5567 351.261 18.762C351.056 18.9673 350.804 19.07 350.505 19.07Z" fill="white"/>
<line y1="40.5" x2="427" y2="40.5" stroke="#D434FE"/>
<path d="M418.78 18V14.2H414.96V12.32H418.78V8.56H420.58V12.32H424.4V14.2H420.58V18H418.78Z" fill="#D434FE"/>
</svg>
