<svg width="427" height="41" viewBox="0 0 427 41" fill="none" xmlns="http://www.w3.org/2000/svg">
<path d="M5.824 17.502C6.39333 17.502 6.88333 17.4087 7.294 17.222C7.70467 17.026 8.134 16.718 8.582 16.298L9.646 17.39C8.61 18.538 7.35 19.112 5.866 19.112C4.39133 19.112 3.164 18.636 2.184 17.684C1.21333 16.732 0.728 15.528 0.728 14.072C0.728 12.616 1.22267 11.4027 2.212 10.432C3.21067 9.46133 4.466 8.976 5.978 8.976C7.49933 8.976 8.76867 9.536 9.786 10.656L8.736 11.804C8.26933 11.356 7.826 11.0433 7.406 10.866C6.99533 10.6887 6.51 10.6 5.95 10.6C4.96067 10.6 4.13 10.922 3.458 11.566C2.786 12.2007 2.45 13.0173 2.45 14.016C2.45 15.0053 2.78133 15.836 3.444 16.508C4.116 17.1707 4.90933 17.502 5.824 17.502ZM17.4766 19H16.0486V18.006C15.4326 18.7433 14.6066 19.112 13.5706 19.112C12.7959 19.112 12.1519 18.8927 11.6386 18.454C11.1346 18.0153 10.8826 17.432 10.8826 16.704C10.8826 15.9667 11.1533 15.416 11.6946 15.052C12.2359 14.688 12.9686 14.506 13.8926 14.506H15.9226V14.226C15.9226 13.2367 15.3719 12.742 14.2706 12.742C13.5799 12.742 12.8613 12.994 12.1146 13.498L11.4146 12.518C12.3199 11.7993 13.3466 11.44 14.4946 11.44C15.3719 11.44 16.0859 11.664 16.6366 12.112C17.1966 12.5507 17.4766 13.246 17.4766 14.198V19ZM15.9086 16.228V15.598H14.1446C13.0153 15.598 12.4506 15.9527 12.4506 16.662C12.4506 17.026 12.5906 17.306 12.8706 17.502C13.1506 17.6887 13.5379 17.782 14.0326 17.782C14.5366 17.782 14.9753 17.642 15.3486 17.362C15.7219 17.082 15.9086 16.704 15.9086 16.228ZM21.2274 14.968V19H19.6594V11.552H21.2274V12.91C21.4794 12.4527 21.8247 12.0933 22.2634 11.832C22.7114 11.5707 23.1921 11.44 23.7054 11.44C24.5454 11.44 25.2221 11.6967 25.7354 12.21C26.2581 12.7233 26.5194 13.4653 26.5194 14.436V19H24.9514V14.912C24.9514 13.54 24.3821 12.854 23.2434 12.854C22.7021 12.854 22.2307 13.036 21.8294 13.4C21.4281 13.7547 21.2274 14.2773 21.2274 14.968ZM32.776 9.214H34.428V19H32.776V9.214ZM44.2411 19H42.4491L39.8731 11.552H41.4971L43.3451 17.18L45.1931 11.552H46.8171L48.6651 17.18L50.5131 11.552H52.1371L49.5611 19H47.7691L46.0051 13.904L44.2411 19ZM55.1649 17.04C55.6129 17.488 56.1776 17.712 56.8589 17.712C57.5403 17.712 58.1003 17.488 58.5389 17.04C58.9869 16.5827 59.2109 15.9947 59.2109 15.276C59.2109 14.5573 58.9869 13.974 58.5389 13.526C58.1003 13.0687 57.5403 12.84 56.8589 12.84C56.1776 12.84 55.6129 13.0687 55.1649 13.526C54.7263 13.974 54.5069 14.5573 54.5069 15.276C54.5069 15.9947 54.7263 16.5827 55.1649 17.04ZM59.6589 18.006C58.9123 18.7433 57.9789 19.112 56.8589 19.112C55.7389 19.112 54.8056 18.7433 54.0589 18.006C53.3123 17.2593 52.9389 16.3493 52.9389 15.276C52.9389 14.2027 53.3123 13.2973 54.0589 12.56C54.8056 11.8133 55.7389 11.44 56.8589 11.44C57.9789 11.44 58.9123 11.8133 59.6589 12.56C60.4056 13.2973 60.7789 14.2027 60.7789 15.276C60.7789 16.3493 60.4056 17.2593 59.6589 18.006ZM66.4677 13.022C65.6931 13.022 65.1097 13.274 64.7177 13.778C64.3257 14.282 64.1297 14.9587 64.1297 15.808V19H62.5617V11.552H64.1297V13.05C64.3817 12.5833 64.7224 12.2007 65.1517 11.902C65.5904 11.6033 66.0524 11.4493 66.5377 11.44L66.5517 13.022C66.5237 13.022 66.4957 13.022 66.4677 13.022ZM69.6942 19H68.1262V8.612H69.6942V14.716L72.7182 11.552H74.7342L71.9062 14.506L74.9442 19H73.0402L70.8282 15.738L69.6942 16.886V19ZM81.8388 17.04C82.2868 17.488 82.8514 17.712 83.5328 17.712C84.2141 17.712 84.7741 17.488 85.2128 17.04C85.6608 16.5827 85.8848 15.9947 85.8848 15.276C85.8848 14.5573 85.6608 13.974 85.2128 13.526C84.7741 13.0687 84.2141 12.84 83.5328 12.84C82.8514 12.84 82.2868 13.0687 81.8388 13.526C81.4001 13.974 81.1808 14.5573 81.1808 15.276C81.1808 15.9947 81.4001 16.5827 81.8388 17.04ZM86.3328 18.006C85.5861 18.7433 84.6528 19.112 83.5328 19.112C82.4128 19.112 81.4794 18.7433 80.7328 18.006C79.9861 17.2593 79.6128 16.3493 79.6128 15.276C79.6128 14.2027 79.9861 13.2973 80.7328 12.56C81.4794 11.8133 82.4128 11.44 83.5328 11.44C84.6528 11.44 85.5861 11.8133 86.3328 12.56C87.0794 13.2973 87.4528 14.2027 87.4528 15.276C87.4528 16.3493 87.0794 17.2593 86.3328 18.006ZM90.8036 14.968V19H89.2356V11.552H90.8036V12.91C91.0556 12.4527 91.4009 12.0933 91.8396 11.832C92.2876 11.5707 92.7682 11.44 93.2816 11.44C94.1216 11.44 94.7982 11.6967 95.3116 12.21C95.8342 12.7233 96.0956 13.4653 96.0956 14.436V19H94.5276V14.912C94.5276 13.54 93.9582 12.854 92.8196 12.854C92.2782 12.854 91.8069 13.036 91.4056 13.4C91.0042 13.7547 90.8036 14.2773 90.8036 14.968ZM108.162 19H106.734V18.006C106.118 18.7433 105.292 19.112 104.256 19.112C103.481 19.112 102.837 18.8927 102.324 18.454C101.82 18.0153 101.568 17.432 101.568 16.704C101.568 15.9667 101.839 15.416 102.38 15.052C102.921 14.688 103.654 14.506 104.578 14.506H106.608V14.226C106.608 13.2367 106.057 12.742 104.956 12.742C104.265 12.742 103.547 12.994 102.8 13.498L102.1 12.518C103.005 11.7993 104.032 11.44 105.18 11.44C106.057 11.44 106.771 11.664 107.322 12.112C107.882 12.5507 108.162 13.246 108.162 14.198V19ZM106.594 16.228V15.598H104.83C103.701 15.598 103.136 15.9527 103.136 16.662C103.136 17.026 103.276 17.306 103.556 17.502C103.836 17.6887 104.223 17.782 104.718 17.782C105.222 17.782 105.661 17.642 106.034 17.362C106.407 17.082 106.594 16.704 106.594 16.228ZM118.177 11.44C119.175 11.44 120.029 11.7853 120.739 12.476C121.448 13.1667 121.803 14.086 121.803 15.234C121.803 16.382 121.448 17.3153 120.739 18.034C120.039 18.7527 119.217 19.112 118.275 19.112C117.341 19.112 116.501 18.7013 115.755 17.88V21.716H114.187V11.552H115.755V12.854C116.371 11.9113 117.178 11.44 118.177 11.44ZM115.727 15.29C115.727 15.9993 115.941 16.5827 116.371 17.04C116.8 17.488 117.323 17.712 117.939 17.712C118.555 17.712 119.091 17.488 119.549 17.04C120.006 16.592 120.235 16.0133 120.235 15.304C120.235 14.5853 120.011 13.9927 119.563 13.526C119.115 13.05 118.578 12.812 117.953 12.812C117.327 12.812 116.8 13.05 116.371 13.526C115.941 13.9927 115.727 14.5807 115.727 15.29ZM127.499 13.022C126.724 13.022 126.141 13.274 125.749 13.778C125.357 14.282 125.161 14.9587 125.161 15.808V19H123.593V11.552H125.161V13.05C125.413 12.5833 125.754 12.2007 126.183 11.902C126.622 11.6033 127.084 11.4493 127.569 11.44L127.583 13.022C127.555 13.022 127.527 13.022 127.499 13.022ZM130.757 17.04C131.205 17.488 131.769 17.712 132.451 17.712C133.132 17.712 133.692 17.488 134.131 17.04C134.579 16.5827 134.803 15.9947 134.803 15.276C134.803 14.5573 134.579 13.974 134.131 13.526C133.692 13.0687 133.132 12.84 132.451 12.84C131.769 12.84 131.205 13.0687 130.757 13.526C130.318 13.974 130.099 14.5573 130.099 15.276C130.099 15.9947 130.318 16.5827 130.757 17.04ZM135.251 18.006C134.504 18.7433 133.571 19.112 132.451 19.112C131.331 19.112 130.397 18.7433 129.651 18.006C128.904 17.2593 128.531 16.3493 128.531 15.276C128.531 14.2027 128.904 13.2973 129.651 12.56C130.397 11.8133 131.331 11.44 132.451 11.44C133.571 11.44 134.504 11.8133 135.251 12.56C135.997 13.2973 136.371 14.2027 136.371 15.276C136.371 16.3493 135.997 17.2593 135.251 18.006ZM138.154 19.35V11.552H139.722V19.406C139.722 20.19 139.484 20.8107 139.008 21.268C138.541 21.7347 137.972 21.968 137.3 21.968C136.637 21.968 136.03 21.7207 135.48 21.226L136.208 20.05C136.525 20.358 136.842 20.512 137.16 20.512C137.486 20.512 137.734 20.4093 137.902 20.204C138.07 19.9987 138.154 19.714 138.154 19.35ZM138.224 10.068C138.028 9.872 137.93 9.63867 137.93 9.368C137.93 9.09733 138.028 8.864 138.224 8.668C138.42 8.472 138.653 8.374 138.924 8.374C139.194 8.374 139.428 8.472 139.624 8.668C139.82 8.864 139.918 9.09733 139.918 9.368C139.918 9.63867 139.82 9.872 139.624 10.068C139.428 10.264 139.194 10.362 138.924 10.362C138.653 10.362 138.42 10.264 138.224 10.068ZM148.925 15.962H143.087C143.125 16.5033 143.372 16.942 143.829 17.278C144.287 17.6047 144.809 17.768 145.397 17.768C146.331 17.768 147.04 17.474 147.525 16.886L148.421 17.866C147.619 18.6967 146.573 19.112 145.285 19.112C144.24 19.112 143.349 18.7667 142.611 18.076C141.883 17.376 141.519 16.4427 141.519 15.276C141.519 14.1 141.893 13.1667 142.639 12.476C143.386 11.7853 144.263 11.44 145.271 11.44C146.289 11.44 147.152 11.748 147.861 12.364C148.571 12.9707 148.925 13.8107 148.925 14.884V15.962ZM143.087 14.73H147.357C147.357 14.1047 147.161 13.624 146.769 13.288C146.377 12.952 145.892 12.784 145.313 12.784C144.744 12.784 144.231 12.9613 143.773 13.316C143.316 13.6613 143.087 14.1327 143.087 14.73ZM153.954 19.112C152.918 19.112 152.026 18.762 151.28 18.062C150.533 17.3527 150.16 16.4287 150.16 15.29C150.16 14.1513 150.547 13.2273 151.322 12.518C152.106 11.7993 153.058 11.44 154.178 11.44C155.298 11.44 156.245 11.8273 157.02 12.602L156.096 13.736C155.452 13.176 154.803 12.896 154.15 12.896C153.496 12.896 152.927 13.1153 152.442 13.554C151.966 13.9833 151.728 14.5433 151.728 15.234C151.728 15.9153 151.966 16.494 152.442 16.97C152.918 17.446 153.501 17.684 154.192 17.684C154.892 17.684 155.55 17.3667 156.166 16.732L157.09 17.74C156.184 18.6547 155.139 19.112 153.954 19.112ZM160.648 12.812V16.592C160.648 16.9467 160.741 17.2313 160.928 17.446C161.115 17.6513 161.376 17.754 161.712 17.754C162.048 17.754 162.37 17.5907 162.678 17.264L163.322 18.37C162.771 18.8647 162.16 19.112 161.488 19.112C160.825 19.112 160.256 18.8833 159.78 18.426C159.313 17.9593 159.08 17.334 159.08 16.55V12.812H158.142V11.552H159.08V9.214H160.648V11.552H162.608V12.812H160.648ZM168.633 9.214H170.285V19H168.633V9.214ZM181.919 16.774C181.919 17.4833 181.662 18.0527 181.149 18.482C180.635 18.902 179.977 19.112 179.175 19.112C178.633 19.112 178.069 19.014 177.481 18.818C176.902 18.622 176.389 18.3467 175.941 17.992L176.697 16.774C177.565 17.4273 178.405 17.754 179.217 17.754C179.571 17.754 179.851 17.6747 180.057 17.516C180.262 17.348 180.365 17.138 180.365 16.886C180.365 16.5127 179.87 16.1767 178.881 15.878C178.806 15.85 178.75 15.8313 178.713 15.822C177.163 15.402 176.389 14.702 176.389 13.722C176.389 13.0313 176.655 12.4807 177.187 12.07C177.728 11.65 178.428 11.44 179.287 11.44C180.145 11.44 180.957 11.692 181.723 12.196L181.135 13.358C180.528 12.9567 179.87 12.756 179.161 12.756C178.787 12.756 178.484 12.826 178.251 12.966C178.017 13.0967 177.901 13.2973 177.901 13.568C177.901 13.8107 178.022 13.988 178.265 14.1C178.433 14.184 178.666 14.2633 178.965 14.338C179.273 14.4127 179.543 14.4873 179.777 14.562C180.01 14.6367 180.234 14.7207 180.449 14.814C180.673 14.9073 180.911 15.038 181.163 15.206C181.667 15.542 181.919 16.0647 181.919 16.774ZM185.627 12.812V16.592C185.627 16.9467 185.72 17.2313 185.907 17.446C186.093 17.6513 186.355 17.754 186.691 17.754C187.027 17.754 187.349 17.5907 187.657 17.264L188.301 18.37C187.75 18.8647 187.139 19.112 186.467 19.112C185.804 19.112 185.235 18.8833 184.759 18.426C184.292 17.9593 184.059 17.334 184.059 16.55V12.812H183.121V11.552H184.059V9.214H185.627V11.552H187.587V12.812H185.627ZM195.58 19H194.152V18.006C193.536 18.7433 192.71 19.112 191.674 19.112C190.899 19.112 190.255 18.8927 189.742 18.454C189.238 18.0153 188.986 17.432 188.986 16.704C188.986 15.9667 189.257 15.416 189.798 15.052C190.339 14.688 191.072 14.506 191.996 14.506H194.026V14.226C194.026 13.2367 193.475 12.742 192.374 12.742C191.683 12.742 190.965 12.994 190.218 13.498L189.518 12.518C190.423 11.7993 191.45 11.44 192.598 11.44C193.475 11.44 194.189 11.664 194.74 12.112C195.3 12.5507 195.58 13.246 195.58 14.198V19ZM194.012 16.228V15.598H192.248C191.119 15.598 190.554 15.9527 190.554 16.662C190.554 17.026 190.694 17.306 190.974 17.502C191.254 17.6887 191.641 17.782 192.136 17.782C192.64 17.782 193.079 17.642 193.452 17.362C193.825 17.082 194.012 16.704 194.012 16.228ZM201.669 13.022C200.894 13.022 200.311 13.274 199.919 13.778C199.527 14.282 199.331 14.9587 199.331 15.808V19H197.763V11.552H199.331V13.05C199.583 12.5833 199.924 12.2007 200.353 11.902C200.792 11.6033 201.254 11.4493 201.739 11.44L201.753 13.022C201.725 13.022 201.697 13.022 201.669 13.022ZM205.259 12.812V16.592C205.259 16.9467 205.353 17.2313 205.539 17.446C205.726 17.6513 205.987 17.754 206.323 17.754C206.659 17.754 206.981 17.5907 207.289 17.264L207.933 18.37C207.383 18.8647 206.771 19.112 206.099 19.112C205.437 19.112 204.867 18.8833 204.391 18.426C203.925 17.9593 203.691 17.334 203.691 16.55V12.812H202.753V11.552H203.691V9.214H205.259V11.552H207.219V12.812H205.259ZM216.109 15.962H210.271C210.308 16.5033 210.556 16.942 211.013 17.278C211.47 17.6047 211.993 17.768 212.581 17.768C213.514 17.768 214.224 17.474 214.709 16.886L215.605 17.866C214.802 18.6967 213.757 19.112 212.469 19.112C211.424 19.112 210.532 18.7667 209.795 18.076C209.067 17.376 208.703 16.4427 208.703 15.276C208.703 14.1 209.076 13.1667 209.823 12.476C210.57 11.7853 211.447 11.44 212.455 11.44C213.472 11.44 214.336 11.748 215.045 12.364C215.754 12.9707 216.109 13.8107 216.109 14.884V15.962ZM210.271 14.73H214.541C214.541 14.1047 214.345 13.624 213.953 13.288C213.561 12.952 213.076 12.784 212.497 12.784C211.928 12.784 211.414 12.9613 210.957 13.316C210.5 13.6613 210.271 14.1327 210.271 14.73ZM220.871 19.112C219.929 19.112 219.107 18.7573 218.407 18.048C217.707 17.3387 217.357 16.4053 217.357 15.248C217.357 14.0907 217.717 13.1667 218.435 12.476C219.154 11.7853 220.008 11.44 220.997 11.44C221.996 11.44 222.799 11.86 223.405 12.7V8.612H224.973V19H223.405V17.88C222.827 18.7013 221.982 19.112 220.871 19.112ZM218.925 15.318C218.925 16.0273 219.154 16.606 219.611 17.054C220.069 17.502 220.605 17.726 221.221 17.726C221.837 17.726 222.36 17.502 222.789 17.054C223.219 16.5967 223.433 16.0133 223.433 15.304C223.433 14.5947 223.219 14.002 222.789 13.526C222.36 13.05 221.833 12.812 221.207 12.812C220.582 12.812 220.045 13.05 219.597 13.526C219.149 14.002 218.925 14.5993 218.925 15.318ZM235.071 11.44C236.07 11.44 236.924 11.7853 237.633 12.476C238.343 13.1667 238.697 14.086 238.697 15.234C238.697 16.382 238.343 17.3153 237.633 18.034C236.933 18.7527 236.112 19.112 235.169 19.112C234.236 19.112 233.396 18.7013 232.649 17.88V19H231.081V8.612H232.649V12.854C233.265 11.9113 234.073 11.44 235.071 11.44ZM232.621 15.29C232.621 15.9993 232.836 16.5827 233.265 17.04C233.695 17.488 234.217 17.712 234.833 17.712C235.449 17.712 235.986 17.488 236.443 17.04C236.901 16.592 237.129 16.0133 237.129 15.304C237.129 14.5853 236.905 13.9927 236.457 13.526C236.009 13.05 235.473 12.812 234.847 12.812C234.222 12.812 233.695 13.05 233.265 13.526C232.836 13.9927 232.621 14.5807 232.621 15.29ZM247.418 15.962H241.58C241.617 16.5033 241.864 16.942 242.322 17.278C242.779 17.6047 243.302 17.768 243.89 17.768C244.823 17.768 245.532 17.474 246.018 16.886L246.914 17.866C246.111 18.6967 245.066 19.112 243.778 19.112C242.732 19.112 241.841 18.7667 241.104 18.076C240.376 17.376 240.012 16.4427 240.012 15.276C240.012 14.1 240.385 13.1667 241.132 12.476C241.878 11.7853 242.756 11.44 243.764 11.44C244.781 11.44 245.644 11.748 246.354 12.364C247.063 12.9707 247.418 13.8107 247.418 14.884V15.962ZM241.58 14.73H245.85C245.85 14.1047 245.654 13.624 245.262 13.288C244.87 12.952 244.384 12.784 243.806 12.784C243.236 12.784 242.723 12.9613 242.266 13.316C241.808 13.6613 241.58 14.1327 241.58 14.73ZM251.019 10.936V11.552H252.979V12.812H251.019V19H249.451V12.812H248.513V11.552H249.451V10.978C249.451 10.194 249.684 9.57333 250.151 9.116C250.627 8.64933 251.196 8.416 251.859 8.416C252.531 8.416 253.142 8.66333 253.693 9.158L253.049 10.264C252.741 9.93733 252.419 9.774 252.083 9.774C251.747 9.774 251.486 9.88133 251.299 10.096C251.112 10.3013 251.019 10.5813 251.019 10.936ZM256.046 17.04C256.494 17.488 257.058 17.712 257.74 17.712C258.421 17.712 258.981 17.488 259.42 17.04C259.868 16.5827 260.092 15.9947 260.092 15.276C260.092 14.5573 259.868 13.974 259.42 13.526C258.981 13.0687 258.421 12.84 257.74 12.84C257.058 12.84 256.494 13.0687 256.046 13.526C255.607 13.974 255.388 14.5573 255.388 15.276C255.388 15.9947 255.607 16.5827 256.046 17.04ZM260.54 18.006C259.793 18.7433 258.86 19.112 257.74 19.112C256.62 19.112 255.686 18.7433 254.94 18.006C254.193 17.2593 253.82 16.3493 253.82 15.276C253.82 14.2027 254.193 13.2973 254.94 12.56C255.686 11.8133 256.62 11.44 257.74 11.44C258.86 11.44 259.793 11.8133 260.54 12.56C261.286 13.2973 261.66 14.2027 261.66 15.276C261.66 16.3493 261.286 17.2593 260.54 18.006ZM267.349 13.022C266.574 13.022 265.991 13.274 265.599 13.778C265.207 14.282 265.011 14.9587 265.011 15.808V19H263.443V11.552H265.011V13.05C265.263 12.5833 265.603 12.2007 266.033 11.902C266.471 11.6033 266.933 11.4493 267.419 11.44L267.433 13.022C267.405 13.022 267.377 13.022 267.349 13.022ZM275.937 15.962H270.099C270.136 16.5033 270.384 16.942 270.841 17.278C271.298 17.6047 271.821 17.768 272.409 17.768C273.342 17.768 274.052 17.474 274.537 16.886L275.433 17.866C274.63 18.6967 273.585 19.112 272.297 19.112C271.252 19.112 270.36 18.7667 269.623 18.076C268.895 17.376 268.531 16.4427 268.531 15.276C268.531 14.1 268.904 13.1667 269.651 12.476C270.398 11.7853 271.275 11.44 272.283 11.44C273.3 11.44 274.164 11.748 274.873 12.364C275.582 12.9707 275.937 13.8107 275.937 14.884V15.962ZM270.099 14.73H274.369C274.369 14.1047 274.173 13.624 273.781 13.288C273.389 12.952 272.904 12.784 272.325 12.784C271.756 12.784 271.242 12.9613 270.785 13.316C270.328 13.6613 270.099 14.1327 270.099 14.73ZM283.435 12.812V16.592C283.435 16.9467 283.528 17.2313 283.715 17.446C283.902 17.6513 284.163 17.754 284.499 17.754C284.835 17.754 285.157 17.5907 285.465 17.264L286.109 18.37C285.558 18.8647 284.947 19.112 284.275 19.112C283.612 19.112 283.043 18.8833 282.567 18.426C282.1 17.9593 281.867 17.334 281.867 16.55V12.812H280.929V11.552H281.867V9.214H283.435V11.552H285.395V12.812H283.435ZM288.923 14.968V19H287.355V8.626H288.923V12.91C289.147 12.4527 289.483 12.0933 289.931 11.832C290.388 11.5707 290.878 11.44 291.401 11.44C292.241 11.44 292.917 11.6967 293.431 12.21C293.953 12.7233 294.215 13.4653 294.215 14.436V19H292.647V14.912C292.647 13.54 292.077 12.854 290.939 12.854C290.397 12.854 289.926 13.036 289.525 13.4C289.123 13.7547 288.923 14.2773 288.923 14.968ZM303.335 15.962H297.497C297.535 16.5033 297.782 16.942 298.239 17.278C298.697 17.6047 299.219 17.768 299.807 17.768C300.741 17.768 301.45 17.474 301.935 16.886L302.831 17.866C302.029 18.6967 300.983 19.112 299.695 19.112C298.65 19.112 297.759 18.7667 297.021 18.076C296.293 17.376 295.929 16.4427 295.929 15.276C295.929 14.1 296.303 13.1667 297.049 12.476C297.796 11.7853 298.673 11.44 299.681 11.44C300.699 11.44 301.562 11.748 302.271 12.364C302.981 12.9707 303.335 13.8107 303.335 14.884V15.962ZM297.497 14.73H301.767C301.767 14.1047 301.571 13.624 301.179 13.288C300.787 12.952 300.302 12.784 299.723 12.784C299.154 12.784 298.641 12.9613 298.183 13.316C297.726 13.6613 297.497 14.1327 297.497 14.73ZM310.47 14.968V19H308.902V8.626H310.47V12.91C310.694 12.4527 311.03 12.0933 311.478 11.832C311.935 11.5707 312.425 11.44 312.948 11.44C313.788 11.44 314.464 11.6967 314.978 12.21C315.5 12.7233 315.762 13.4653 315.762 14.436V19H314.194V14.912C314.194 13.54 313.624 12.854 312.486 12.854C311.944 12.854 311.473 13.036 311.072 13.4C310.67 13.7547 310.47 14.2773 310.47 14.968ZM323.986 19H322.558V18.006C321.942 18.7433 321.116 19.112 320.08 19.112C319.306 19.112 318.662 18.8927 318.148 18.454C317.644 18.0153 317.392 17.432 317.392 16.704C317.392 15.9667 317.663 15.416 318.204 15.052C318.746 14.688 319.478 14.506 320.402 14.506H322.432V14.226C322.432 13.2367 321.882 12.742 320.78 12.742C320.09 12.742 319.371 12.994 318.624 13.498L317.924 12.518C318.83 11.7993 319.856 11.44 321.004 11.44C321.882 11.44 322.596 11.664 323.146 12.112C323.706 12.5507 323.986 13.246 323.986 14.198V19ZM322.418 16.228V15.598H320.654C319.525 15.598 318.96 15.9527 318.96 16.662C318.96 17.026 319.1 17.306 319.38 17.502C319.66 17.6887 320.048 17.782 320.542 17.782C321.046 17.782 321.485 17.642 321.858 17.362C322.232 17.082 322.418 16.704 322.418 16.228ZM329.473 19.112C328.437 19.112 327.546 18.762 326.799 18.062C326.052 17.3527 325.679 16.4287 325.679 15.29C325.679 14.1513 326.066 13.2273 326.841 12.518C327.625 11.7993 328.577 11.44 329.697 11.44C330.817 11.44 331.764 11.8273 332.539 12.602L331.615 13.736C330.971 13.176 330.322 12.896 329.669 12.896C329.016 12.896 328.446 13.1153 327.961 13.554C327.485 13.9833 327.247 14.5433 327.247 15.234C327.247 15.9153 327.485 16.494 327.961 16.97C328.437 17.446 329.02 17.684 329.711 17.684C330.411 17.684 331.069 17.3667 331.685 16.732L332.609 17.74C331.704 18.6547 330.658 19.112 329.473 19.112ZM335.804 19H334.236V8.612H335.804V14.716L338.828 11.552H340.844L338.016 14.506L341.054 19H339.15L336.938 15.738L335.804 16.886V19ZM348.281 19H346.853V18.006C346.237 18.7433 345.411 19.112 344.375 19.112C343.601 19.112 342.957 18.8927 342.443 18.454C341.939 18.0153 341.687 17.432 341.687 16.704C341.687 15.9667 341.958 15.416 342.499 15.052C343.041 14.688 343.773 14.506 344.697 14.506H346.727V14.226C346.727 13.2367 346.177 12.742 345.075 12.742C344.385 12.742 343.666 12.994 342.919 13.498L342.219 12.518C343.125 11.7993 344.151 11.44 345.299 11.44C346.177 11.44 346.891 11.664 347.441 12.112C348.001 12.5507 348.281 13.246 348.281 14.198V19ZM346.713 16.228V15.598H344.949C343.82 15.598 343.255 15.9527 343.255 16.662C343.255 17.026 343.395 17.306 343.675 17.502C343.955 17.6887 344.343 17.782 344.837 17.782C345.341 17.782 345.78 17.642 346.153 17.362C346.527 17.082 346.713 16.704 346.713 16.228ZM352.314 12.812V16.592C352.314 16.9467 352.407 17.2313 352.594 17.446C352.781 17.6513 353.042 17.754 353.378 17.754C353.714 17.754 354.036 17.5907 354.344 17.264L354.988 18.37C354.437 18.8647 353.826 19.112 353.154 19.112C352.491 19.112 351.922 18.8833 351.446 18.426C350.979 17.9593 350.746 17.334 350.746 16.55V12.812H349.808V11.552H350.746V9.214H352.314V11.552H354.274V12.812H352.314ZM357.802 14.968V19H356.234V8.626H357.802V12.91C358.026 12.4527 358.362 12.0933 358.81 11.832C359.267 11.5707 359.757 11.44 360.28 11.44C361.12 11.44 361.796 11.6967 362.31 12.21C362.832 12.7233 363.094 13.4653 363.094 14.436V19H361.526V14.912C361.526 13.54 360.956 12.854 359.818 12.854C359.276 12.854 358.805 13.036 358.404 13.4C358.002 13.7547 357.802 14.2773 357.802 14.968ZM367.02 17.04C367.468 17.488 368.033 17.712 368.714 17.712C369.396 17.712 369.956 17.488 370.394 17.04C370.842 16.5827 371.066 15.9947 371.066 15.276C371.066 14.5573 370.842 13.974 370.394 13.526C369.956 13.0687 369.396 12.84 368.714 12.84C368.033 12.84 367.468 13.0687 367.02 13.526C366.582 13.974 366.362 14.5573 366.362 15.276C366.362 15.9947 366.582 16.5827 367.02 17.04ZM371.514 18.006C370.768 18.7433 369.834 19.112 368.714 19.112C367.594 19.112 366.661 18.7433 365.914 18.006C365.168 17.2593 364.794 16.3493 364.794 15.276C364.794 14.2027 365.168 13.2973 365.914 12.56C366.661 11.8133 367.594 11.44 368.714 11.44C369.834 11.44 370.768 11.8133 371.514 12.56C372.261 13.2973 372.634 14.2027 372.634 15.276C372.634 16.3493 372.261 17.2593 371.514 18.006ZM375.985 14.968V19H374.417V11.552H375.985V12.91C376.237 12.4527 376.583 12.0933 377.021 11.832C377.469 11.5707 377.95 11.44 378.463 11.44C379.303 11.44 379.98 11.6967 380.493 12.21C381.016 12.7233 381.277 13.4653 381.277 14.436V19H379.709V14.912C379.709 13.54 379.14 12.854 378.001 12.854C377.46 12.854 376.989 13.036 376.587 13.4C376.186 13.7547 375.985 14.2773 375.985 14.968ZM386.562 15.962H384.98V15.108C384.98 14.7347 385.022 14.4593 385.106 14.282C385.199 14.0953 385.395 13.8527 385.694 13.554L386.716 12.532C386.931 12.2987 387.038 12.0093 387.038 11.664C387.038 11.3187 386.926 11.034 386.702 10.81C386.478 10.5767 386.189 10.46 385.834 10.46C385.479 10.46 385.181 10.572 384.938 10.796C384.705 11.0107 384.569 11.3 384.532 11.664H382.838C382.931 10.8333 383.253 10.1847 383.804 9.718C384.364 9.242 385.059 9.004 385.89 9.004C386.721 9.004 387.397 9.23267 387.92 9.69C388.443 10.138 388.704 10.768 388.704 11.58C388.704 12.14 388.55 12.6067 388.242 12.98C388.065 13.204 387.929 13.3627 387.836 13.456C387.743 13.5493 387.617 13.6707 387.458 13.82C387.309 13.96 387.178 14.086 387.066 14.198C386.963 14.3007 386.879 14.3893 386.814 14.464C386.646 14.6693 386.562 14.9587 386.562 15.332V15.962ZM385.792 19.07C385.503 19.07 385.251 18.972 385.036 18.776C384.821 18.5707 384.714 18.328 384.714 18.048C384.714 17.7587 384.817 17.5113 385.022 17.306C385.237 17.1007 385.489 16.998 385.778 16.998C386.077 16.998 386.333 17.1007 386.548 17.306C386.763 17.502 386.87 17.7447 386.87 18.034C386.87 18.314 386.763 18.5567 386.548 18.762C386.343 18.9673 386.091 19.07 385.792 19.07Z" fill="white"/>
<line y1="40.5" x2="427" y2="40.5" stroke="#D434FE"/>
<path d="M418.78 18V14.2H414.96V12.32H418.78V8.56H420.58V12.32H424.4V14.2H420.58V18H418.78Z" fill="#D434FE"/>
</svg>
